<?xml version="1.0" encoding="utf-8"?>
<!-- Generator: Adobe Illustrator 16.0.3, SVG Export Plug-In . SVG Version: 6.00 Build 0)  -->
<!DOCTYPE svg PUBLIC "-//W3C//DTD SVG 1.1//EN" "http://www.w3.org/Graphics/SVG/1.1/DTD/svg11.dtd">
<svg version="1.1" id="Ebene_1" xmlns="http://www.w3.org/2000/svg" xmlns:xlink="http://www.w3.org/1999/xlink" x="0px" y="0px"
	 width="425.778px" height="84.458px" viewBox="3.671 5.508 425.778 84.458" enable-background="new 3.671 5.508 425.778 84.458"
	 xml:space="preserve">
<g>
	<rect x="5.835" y="7.082" fill="#3D8FC7" width="6.153" height="38.82"/>
	<polygon fill="#3D8FC7" points="41.356,7.082 15.659,7.082 15.659,11.991 25.33,11.991 25.33,45.903 31.482,45.903 31.482,11.991 
		41.356,11.991 	"/>
	<path fill="#3D8FC7" d="M49.949,17.606c1.557-1.903,2.346-4.08,2.346-6.472c0-1.596-0.338-2.929-1.006-3.964
		c-0.713-1.103-1.688-1.663-2.895-1.663c-1.417,0-2.545,0.413-3.351,1.228c-0.803,0.813-1.21,1.722-1.21,2.699
		c0,3.218,1.711,4.138,3.337,4.285c-0.064,1.083-0.353,2.029-0.859,2.819c-0.541,0.844-1.229,1.254-2.105,1.254h-0.5v2.726h0.5
		C46.435,20.519,48.367,19.539,49.949,17.606z"/>
	<path fill="#3D8FC7" d="M70.581,46.511c1.073,0,1.979-0.013,2.721-0.038c0.744-0.026,1.524-0.074,2.346-0.142
		c0.833-0.069,1.541-0.171,2.103-0.303c0.562-0.132,1.149-0.308,1.744-0.524c0.635-0.23,1.164-0.52,1.571-0.861
		c0.382-0.319,0.773-0.71,1.162-1.161c0.41-0.475,0.731-1.027,0.954-1.641c0.207-0.569,0.405-1.24,0.587-1.995
		c0.183-0.755,0.311-1.602,0.38-2.517c0.068-0.903,0.103-1.919,0.103-3.02c0-0.995-0.043-1.905-0.129-2.707
		c-0.087-0.805-0.196-1.53-0.324-2.154c-0.136-0.66-0.348-1.264-0.633-1.799c-0.272-0.508-0.544-0.953-0.807-1.322
		c-0.288-0.405-0.693-0.775-1.208-1.1c-0.464-0.291-0.896-0.538-1.286-0.733c-0.408-0.204-0.947-0.391-1.647-0.57
		c-0.67-0.171-1.262-0.31-1.778-0.412c-0.512-0.102-1.195-0.221-2.044-0.357l-9.087-1.548c-1.137-0.194-1.666-0.909-1.666-2.25
		v-4.391c0-0.546,0.045-0.983,0.133-1.299c0.081-0.289,0.239-0.558,0.484-0.825c0.229-0.249,0.604-0.443,1.118-0.579
		c0.581-0.154,1.342-0.272,2.265-0.354c0.932-0.083,2.143-0.125,3.598-0.125c3.252,0,4.575,0.269,5.119,0.497
		c0.606,0.242,0.981,0.7,1.143,1.384c0.032,0.162,0.114,0.834,0.322,3.121l0.052,0.57l5.463-1.259v-0.398
		c0-1.112-0.08-2.107-0.237-2.959c-0.159-0.864-0.394-1.634-0.698-2.291c-0.318-0.683-0.769-1.27-1.339-1.747
		c-0.549-0.458-1.156-0.837-1.805-1.126c-0.645-0.287-1.459-0.513-2.419-0.671c-0.929-0.153-1.903-0.262-2.894-0.323
		c-0.981-0.06-2.166-0.09-3.52-0.09c-1.67,0-3.1,0.056-4.25,0.167C65.002,6.778,63.907,7,62.923,7.322
		c-1.016,0.333-1.851,0.779-2.482,1.329c-0.635,0.553-1.172,1.287-1.596,2.18c-0.417,0.877-0.713,1.907-0.881,3.062
		c-0.164,1.125-0.247,2.495-0.247,4.079c0.054,3.036,0.529,5.19,1.454,6.588c0.939,1.417,2.597,2.335,4.925,2.729l12.627,2.205
		c0.349,0.072,0.84,0.269,1.076,1.149c0.216,0.81,0.334,2.327,0.351,4.511c0.016,1.003,0,1.806-0.049,2.387
		c-0.048,0.564-0.163,1.117-0.343,1.645c-0.163,0.475-0.372,0.823-0.624,1.036c-0.272,0.23-0.695,0.442-1.258,0.632
		c-0.585,0.197-1.28,0.33-2.064,0.393c-0.815,0.067-1.869,0.101-3.132,0.101c-1.531,0-2.765-0.059-3.668-0.174
		c-0.901-0.114-1.637-0.25-2.188-0.403c-0.439-0.123-0.753-0.376-0.959-0.775c-0.249-0.482-0.417-0.923-0.5-1.31
		c-0.088-0.411-0.184-1.139-0.282-2.153c-0.051-0.69-0.103-1.226-0.155-1.604l-0.069-0.508l-5.642,0.914l0.02,0.444
		c0.067,1.525,0.149,2.724,0.244,3.562c0.096,0.859,0.305,1.769,0.619,2.705c0.334,0.995,0.808,1.739,1.408,2.213
		c0.56,0.443,1.348,0.873,2.343,1.277c0.999,0.406,2.218,0.674,3.623,0.797C66.847,46.45,68.565,46.511,70.581,46.511z"/>
	<polygon fill="#3D8FC7" points="106.784,45.903 112.936,45.903 112.936,11.991 122.81,11.991 122.81,7.082 97.113,7.082 
		97.113,11.991 106.784,11.991 	"/>
	<rect x="126.404" y="7.082" fill="#3D8FC7" width="6.153" height="38.82"/>
	<polygon fill="#3D8FC7" points="146.029,17.68 155.997,45.902 159.809,45.902 169.107,17.564 170.804,45.902 176.834,45.902 
		174.256,6.853 167.847,6.853 157.99,35.608 147.792,6.853 141.666,6.853 139.087,45.902 144.513,45.902 	"/>
	<polygon fill="#3D8FC7" points="206.261,41.019 189.413,41.019 189.413,28.262 203.552,28.262 203.552,23.15 189.413,23.15 
		189.413,11.991 206.033,11.991 205.396,7.082 183.261,7.082 183.261,45.902 205.624,45.902 	"/>
	<polygon fill="#3D8FC7" points="218.492,11.991 228.164,11.991 228.164,45.903 234.316,45.903 234.316,11.991 244.189,11.991 
		244.189,7.082 218.492,7.082 	"/>
	<path fill="#3D8FC7" d="M274.503,43.111c1.315-1.549,2.117-4.014,2.453-7.538c0.186-1.996,0.28-6.17,0.28-12.407
		c0-2.23-0.081-4.147-0.242-5.699c-0.165-1.581-0.478-3.032-0.928-4.315c-0.46-1.308-1.061-2.384-1.786-3.2
		c-0.73-0.818-1.7-1.508-2.883-2.051c-1.164-0.534-2.513-0.911-4.008-1.12c-1.476-0.206-3.268-0.31-5.325-0.31
		c-2.176,0-4.048,0.108-5.564,0.322c-1.548,0.219-2.927,0.638-4.097,1.244c-1.184,0.614-2.133,1.363-2.822,2.225
		c-0.698,0.871-1.243,2.024-1.666,3.528c-0.404,1.438-0.679,3.025-0.815,4.714c-0.138,1.661-0.205,3.717-0.205,6.286
		c0,2.084,0.004,3.675,0.013,4.775c0.008,1.102,0.05,2.404,0.128,3.981c0.075,1.543,0.176,2.71,0.298,3.468
		c0.118,0.74,0.304,1.625,0.567,2.706c0.274,1.125,0.604,1.918,1.005,2.424c0.359,0.456,0.819,0.997,1.378,1.622
		c0.605,0.682,1.304,1.153,2.072,1.4c0.691,0.223,1.525,0.466,2.497,0.73c0.993,0.27,2.09,0.441,3.262,0.512
		c1.149,0.068,2.479,0.103,3.951,0.103c2.122,0,3.963-0.096,5.473-0.285C270.781,45.806,273.125,44.757,274.503,43.111z
		 M271.063,27.71c0,0.978-0.004,1.762-0.015,2.354l-0.036,2.243c-0.019,0.917-0.052,1.637-0.101,2.201
		c-0.051,0.579-0.118,1.23-0.201,1.952c-0.084,0.706-0.189,1.281-0.314,1.708c-0.131,0.452-0.282,0.898-0.454,1.341
		c-0.152,0.391-0.339,0.703-0.553,0.924c-0.214,0.22-0.439,0.371-0.77,0.5c-0.525,0.305-2.089,0.668-6.552,0.668
		c-4.461,0-6.025-0.364-6.634-0.707c-0.93-0.333-1.615-1.777-1.982-4.17c-0.25-1.727-0.376-4.999-0.376-9.726
		c0-3.187,0.025-6.36,0.075-9.426c0.032-0.994,0.086-1.789,0.16-2.365c0.069-0.541,0.219-1.081,0.444-1.603
		c0.208-0.479,0.47-0.83,0.779-1.045c0.347-0.241,0.859-0.466,1.523-0.668c0.68-0.208,1.491-0.347,2.414-0.412
		c0.951-0.067,2.16-0.101,3.594-0.101c1.421,0,2.631,0.034,3.596,0.101c0.929,0.065,1.742,0.204,2.418,0.411
		c0.667,0.204,1.18,0.429,1.522,0.667c0.312,0.218,0.573,0.569,0.778,1.045c0.227,0.521,0.376,1.061,0.444,1.604
		c0.074,0.579,0.129,1.375,0.162,2.356C271.038,20.833,271.063,24.247,271.063,27.71z"/>
	<polygon fill="#3D8FC7" points="328.379,6.853 321.97,6.853 312.117,35.608 301.918,6.853 295.79,6.853 293.211,45.902 
		298.637,45.902 300.153,17.68 310.121,45.902 313.934,45.902 323.23,17.564 324.929,45.902 330.959,45.902 	"/>
	<path fill="#3D8FC7" d="M364.13,43.111c1.315-1.549,2.117-4.014,2.453-7.538c0.187-2.002,0.281-6.177,0.281-12.407
		c0-2.224-0.082-4.141-0.243-5.699c-0.165-1.581-0.478-3.032-0.928-4.314c-0.458-1.306-1.059-2.382-1.786-3.2
		c-0.73-0.818-1.7-1.508-2.883-2.051c-1.164-0.534-2.513-0.911-4.007-1.12c-1.477-0.206-3.269-0.31-5.326-0.31
		c-2.176,0-4.048,0.108-5.563,0.322c-1.548,0.219-2.926,0.638-4.097,1.244c-1.185,0.615-2.135,1.364-2.823,2.225
		c-0.698,0.871-1.243,2.024-1.666,3.528c-0.404,1.438-0.679,3.025-0.815,4.714c-0.138,1.661-0.205,3.717-0.205,6.286
		c0,2.084,0.004,3.675,0.013,4.775c0.008,1.102,0.05,2.404,0.128,3.981c0.075,1.543,0.176,2.71,0.298,3.468
		c0.118,0.74,0.304,1.625,0.567,2.706c0.274,1.125,0.604,1.918,1.005,2.424c0.359,0.456,0.819,0.997,1.378,1.622
		c0.605,0.682,1.304,1.153,2.072,1.4c0.691,0.223,1.525,0.466,2.497,0.73c0.993,0.27,2.09,0.441,3.262,0.512
		c1.149,0.068,2.479,0.103,3.951,0.103c2.122,0,3.963-0.096,5.473-0.285C360.408,45.806,362.751,44.757,364.13,43.111z
		 M360.69,27.71c0,0.978-0.004,1.762-0.015,2.354c-0.008,0.592-0.02,1.34-0.036,2.243c-0.019,0.917-0.052,1.637-0.101,2.201
		c-0.051,0.579-0.118,1.23-0.201,1.952c-0.084,0.706-0.189,1.281-0.314,1.708c-0.131,0.452-0.282,0.898-0.454,1.341
		c-0.153,0.392-0.339,0.704-0.553,0.924c-0.214,0.22-0.439,0.371-0.77,0.5c-0.525,0.305-2.089,0.668-6.552,0.668
		c-4.461,0-6.025-0.364-6.634-0.707c-0.929-0.333-1.614-1.776-1.982-4.17c-0.25-1.727-0.376-4.999-0.376-9.726
		c0-3.187,0.025-6.36,0.075-9.426c0.032-0.983,0.086-1.779,0.16-2.365c0.069-0.538,0.219-1.078,0.444-1.603
		c0.208-0.479,0.47-0.83,0.779-1.045c0.347-0.241,0.859-0.466,1.523-0.668c0.68-0.208,1.491-0.347,2.414-0.412
		c0.951-0.067,2.16-0.101,3.594-0.101c1.421,0,2.631,0.034,3.596,0.101c0.929,0.065,1.742,0.204,2.418,0.411
		c0.667,0.204,1.18,0.429,1.522,0.668c0.312,0.217,0.573,0.568,0.778,1.045c0.226,0.521,0.376,1.06,0.445,1.603
		c0.073,0.579,0.128,1.375,0.162,2.357C360.665,20.854,360.69,24.267,360.69,27.71z"/>
	<polygon fill="#3D8FC7" points="388.481,45.902 401.247,7.082 394.601,7.082 385.554,37.095 376.509,7.082 369.996,7.082 
		382.423,45.902 	"/>
	<polygon fill="#3D8FC7" points="427.905,41.019 411.056,41.019 411.056,28.262 425.195,28.262 425.195,23.15 411.056,23.15 
		411.056,11.991 427.676,11.991 427.039,7.082 404.904,7.082 404.904,45.902 427.266,45.902 	"/>
	<path fill="#3D8FC7" d="M27.429,61.844c-0.401-1.082-0.924-1.967-1.556-2.629c-0.631-0.662-1.479-1.218-2.521-1.651
		c-1.015-0.422-2.183-0.716-3.47-0.872c-1.257-0.152-2.816-0.229-4.633-0.229H3.671v32.991h8.272c1.664,0,3.038-0.012,4.121-0.033
		c1.093-0.021,2.223-0.104,3.36-0.25c1.155-0.147,2.044-0.291,2.716-0.438c0.709-0.154,1.439-0.457,2.169-0.897
		c0.739-0.446,1.281-0.877,1.657-1.317c0.373-0.437,0.736-1.067,1.11-1.93c0.367-0.847,0.62-1.685,0.753-2.488
		c0.131-0.784,0.252-1.826,0.37-3.184c0.116-1.344,0.185-2.663,0.206-3.922c0.021-1.27,0.032-2.886,0.032-4.85
		c0-1.856-0.07-3.449-0.207-4.734C28.091,64.103,27.821,62.903,27.429,61.844z M9.029,60.768h4.009c1.368,0,2.527,0.018,3.481,0.053
		c0.92,0.035,1.761,0.152,2.499,0.349c0.776,0.206,1.404,0.377,1.881,0.513c0.37,0.104,0.692,0.355,0.985,0.764
		c0.343,0.482,0.595,0.876,0.746,1.172c0.076,0.15,0.221,0.56,0.334,1.618c0.091,0.853,0.141,1.57,0.147,2.135
		c0.008,0.577,0.011,1.523,0.009,2.837v5.432c0,1.252-0.021,2.328-0.063,3.196c-0.041,0.849-0.145,1.639-0.31,2.349
		c-0.167,0.712-0.333,1.289-0.497,1.716c-0.138,0.363-0.396,0.696-0.765,0.989c-0.408,0.322-0.786,0.56-1.123,0.705
		c-0.333,0.145-0.882,0.265-1.634,0.359c-0.796,0.099-1.532,0.159-2.185,0.18c-0.684,0.02-1.638,0.031-2.863,0.031H9.029V60.768z"/>
	<path fill="#3D8FC7" d="M58.25,61.646c-0.393-1.115-0.906-2.034-1.525-2.731c-0.622-0.7-1.45-1.29-2.463-1.754
		c-0.996-0.456-2.144-0.776-3.413-0.953c-1.25-0.175-2.769-0.263-4.513-0.263c-1.842,0-3.429,0.092-4.718,0.274
		c-1.318,0.187-2.492,0.543-3.489,1.061c-1.009,0.523-1.821,1.163-2.414,1.902c-0.591,0.738-1.07,1.751-1.422,3.012
		c-0.343,1.226-0.576,2.572-0.693,4c-0.115,1.411-0.173,3.201-0.173,5.322c0,1.763,0.003,3.109,0.011,4.04
		c0.007,0.921,0.043,2.055,0.107,3.37c0.064,1.311,0.149,2.3,0.253,2.941c0.101,0.63,0.263,1.401,0.48,2.296
		c0.235,0.96,0.519,1.641,0.866,2.079c0.305,0.387,0.694,0.845,1.167,1.376c0.523,0.589,1.125,0.995,1.788,1.207
		c0.585,0.188,1.29,0.395,2.114,0.617c0.839,0.229,1.773,0.376,2.775,0.437c0.982,0.058,2.108,0.087,3.346,0.087
		c1.806,0,3.366-0.082,4.638-0.243c2.765-0.36,4.765-1.257,5.942-2.663c1.123-1.322,1.807-3.422,2.091-6.417
		c0.158-1.686,0.238-5.22,0.238-10.502c0-1.891-0.07-3.515-0.207-4.828C58.896,63.966,58.631,62.732,58.25,61.646z M46.335,60.253
		c1.204,0,2.225,0.028,3.035,0.084c0.768,0.054,1.45,0.17,2.024,0.344c0.557,0.171,0.983,0.358,1.266,0.555
		c0.25,0.175,0.463,0.462,0.633,0.852c0.188,0.436,0.313,0.885,0.372,1.337c0.062,0.476,0.107,1.146,0.135,1.983
		c0.043,2.831,0.064,5.691,0.064,8.579c0,0.827-0.004,1.491-0.011,1.99l-0.032,1.896c-0.014,0.754-0.042,1.372-0.084,1.857
		c-0.042,0.489-0.1,1.04-0.17,1.649c-0.068,0.583-0.156,1.064-0.263,1.433c-0.11,0.38-0.238,0.755-0.382,1.127
		c-0.125,0.322-0.277,0.577-0.451,0.757c-0.17,0.176-0.353,0.298-0.633,0.41c-0.436,0.253-1.745,0.554-5.502,0.554
		s-5.066-0.301-5.584-0.592c-0.757-0.272-1.321-1.473-1.628-3.466c-0.21-1.456-0.316-4.22-0.316-8.215
		c0-2.674,0.021-5.333,0.063-7.97c0.029-0.846,0.074-1.516,0.136-1.992c0.06-0.453,0.185-0.903,0.372-1.337
		c0.168-0.391,0.381-0.677,0.632-0.851c0.283-0.197,0.709-0.384,1.267-0.555c0.57-0.174,1.251-0.29,2.024-0.344
		C44.11,60.281,45.131,60.253,46.335,60.253z"/>
	<polygon fill="#3D8FC7" points="89.278,80.595 83.438,56.462 78.334,56.462 72.662,80.56 68.065,56.462 62.438,56.462 
		69.633,89.451 75.067,89.451 80.729,65.899 86.431,89.451 91.887,89.451 98.95,56.462 93.881,56.462 	"/>
	<polygon fill="#3D8FC7" points="122.435,80.769 107.846,56.462 102.662,56.462 102.662,89.451 107.484,89.451 107.484,65.479 
		121.945,89.451 127.256,89.451 127.256,56.462 122.435,56.462 	"/>
	<polygon fill="#3D8FC7" points="138.957,56.462 133.599,56.462 133.599,89.451 150.79,89.451 151.349,85.166 138.957,85.166 	"/>
	<path fill="#3D8FC7" d="M179.698,61.646c-0.393-1.116-0.907-2.035-1.526-2.731c-0.623-0.7-1.451-1.29-2.462-1.754
		c-0.995-0.456-2.144-0.776-3.413-0.953c-1.25-0.175-2.769-0.263-4.513-0.263c-1.842,0-3.43,0.092-4.717,0.274
		c-1.318,0.187-2.492,0.543-3.487,1.061c-1.01,0.523-1.822,1.163-2.415,1.902c-0.591,0.737-1.07,1.75-1.422,3.012
		c-0.342,1.225-0.576,2.571-0.693,4.001c-0.114,1.412-0.172,3.202-0.172,5.321c0,1.763,0.003,3.11,0.011,4.04
		c0.007,0.921,0.043,2.055,0.107,3.37c0.064,1.311,0.149,2.3,0.253,2.941c0.101,0.63,0.257,1.381,0.479,2.296
		c0.235,0.96,0.519,1.64,0.867,2.08c0.305,0.386,0.694,0.845,1.167,1.376c0.524,0.588,1.126,0.994,1.788,1.206
		c0.585,0.188,1.291,0.395,2.114,0.617c0.839,0.229,1.772,0.376,2.775,0.437c0.981,0.058,2.107,0.087,3.346,0.087
		c1.807,0,3.366-0.082,4.637-0.243c2.764-0.36,4.764-1.257,5.942-2.663c1.108-1.308,1.812-3.467,2.092-6.417
		c0.158-1.688,0.238-5.221,0.238-10.502c0-1.886-0.069-3.51-0.207-4.828C180.346,63.971,180.081,62.737,179.698,61.646z
		 M167.783,60.253c1.205,0,2.226,0.028,3.035,0.084c0.767,0.054,1.449,0.17,2.024,0.344c0.558,0.171,0.984,0.358,1.267,0.555
		c0.251,0.176,0.465,0.462,0.634,0.852c0.188,0.438,0.313,0.887,0.371,1.336c0.063,0.493,0.108,1.164,0.135,1.984
		c0.043,2.831,0.064,5.691,0.064,8.579c0,0.826-0.003,1.49-0.011,1.99c-0.007,0.5-0.017,1.131-0.032,1.896
		c-0.014,0.753-0.042,1.371-0.084,1.856c-0.042,0.489-0.099,1.04-0.169,1.648c-0.069,0.587-0.157,1.069-0.263,1.433
		c-0.111,0.381-0.239,0.756-0.383,1.128c-0.126,0.324-0.278,0.579-0.451,0.757c-0.167,0.173-0.354,0.299-0.632,0.41
		c-0.438,0.253-1.747,0.554-5.504,0.554c-3.757,0-5.066-0.301-5.584-0.592c-0.757-0.272-1.321-1.473-1.628-3.466
		c-0.21-1.455-0.317-4.219-0.317-8.215c0-2.674,0.021-5.333,0.063-7.969c0.03-0.841,0.076-1.513,0.138-1.994
		c0.058-0.454,0.182-0.903,0.371-1.336c0.167-0.39,0.38-0.676,0.631-0.85c0.283-0.197,0.71-0.384,1.267-0.556
		c0.571-0.174,1.253-0.291,2.025-0.344C165.558,60.281,166.579,60.253,167.783,60.253z"/>
	<path fill="#3D8FC7" d="M193.905,56.463l-10.119,32.988h5.24l2.34-8.18h11.079l2.426,8.18h5.467l-9.875-32.988H193.905z
		 M201.257,77.18h-8.675l2.688-9.17c0.505-1.715,1.077-3.697,1.713-5.947L201.257,77.18z"/>
	<path fill="#3D8FC7" d="M238.058,61.844c-0.4-1.082-0.924-1.966-1.556-2.629c-0.631-0.662-1.479-1.218-2.521-1.652
		c-1.016-0.422-2.184-0.715-3.47-0.872c-1.259-0.152-2.817-0.229-4.633-0.229H214.3v32.991h8.271c1.664,0,3.039-0.012,4.121-0.033
		c1.093-0.021,2.224-0.104,3.361-0.25c1.157-0.148,2.045-0.291,2.715-0.438c0.71-0.154,1.44-0.457,2.17-0.898
		c0.741-0.446,1.283-0.877,1.657-1.316c0.373-0.438,0.735-1.069,1.109-1.929c0.364-0.84,0.617-1.678,0.753-2.489
		c0.131-0.784,0.252-1.826,0.37-3.184c0.115-1.339,0.185-2.658,0.205-3.921c0.021-1.271,0.032-2.886,0.032-4.851
		c0-1.861-0.069-3.454-0.207-4.734C238.719,64.103,238.451,62.904,238.058,61.844z M219.658,60.768h4.008
		c1.368,0,2.527,0.018,3.481,0.053c0.914,0.035,1.754,0.152,2.498,0.349c0.777,0.206,1.404,0.377,1.882,0.513
		c0.37,0.105,0.692,0.355,0.985,0.764c0.342,0.481,0.593,0.876,0.745,1.173c0.076,0.149,0.221,0.557,0.335,1.617
		c0.089,0.851,0.139,1.569,0.147,2.133c0.006,0.577,0.01,1.524,0.008,2.839v5.432c0,1.259-0.021,2.334-0.063,3.196
		c-0.042,0.858-0.146,1.648-0.311,2.349c-0.166,0.711-0.332,1.288-0.495,1.715c-0.14,0.365-0.398,0.698-0.766,0.99
		c-0.41,0.322-0.788,0.561-1.123,0.705c-0.333,0.145-0.884,0.265-1.635,0.359c-0.796,0.099-1.531,0.159-2.185,0.18
		c-0.685,0.02-1.639,0.031-2.862,0.031h-4.651V60.768z"/>
	<rect x="253.373" y="56.462" fill="#3D8FC7" width="5.357" height="32.989"/>
	<polygon fill="#3D8FC7" points="284.867,80.769 270.279,56.462 265.093,56.462 265.093,89.451 269.916,89.451 269.916,65.479 
		284.375,89.451 289.687,89.451 289.687,56.462 284.867,56.462 	"/>
	<path fill="#3D8FC7" d="M309.585,76.699h5.357c0,4.018,0.006,6.77,0.02,8.252c-0.396,0.244-1.902,0.709-7.635,0.709
		c-2.225,0-3.794-0.111-4.666-0.33c-0.814-0.203-1.313-0.567-1.522-1.107c-0.104-0.278-0.247-0.999-0.333-2.852
		c-0.127-2.862-0.191-5.889-0.191-8.994c0-3.093,0.064-6.119,0.19-8.973c0.077-0.856,0.279-1.496,0.603-1.901
		c0.314-0.396,0.915-0.701,1.786-0.909c0.945-0.226,2.38-0.34,4.263-0.34c2.778,0,4.68,0.128,5.649,0.381
		c1.029,0.269,1.179,0.837,1.193,1.315l0.268,4.799l4.784-0.907l0.024-0.387c0.03-0.473,0.044-0.841,0.044-1.106
		c0-1.144-0.121-2.169-0.359-3.051c-0.245-0.896-0.519-1.616-0.839-2.202c-0.343-0.625-0.864-1.157-1.551-1.581
		c-0.646-0.399-1.204-0.692-1.705-0.896c-0.52-0.212-1.228-0.364-2.165-0.463c-0.883-0.093-1.6-0.148-2.132-0.164
		c-0.518-0.014-1.282-0.021-2.29-0.021h-0.32c-1.154,0-2.213,0.033-3.148,0.098c-0.939,0.066-1.819,0.196-2.615,0.388
		c-0.797,0.193-1.502,0.409-2.097,0.645c-0.634,0.252-1.215,0.616-1.728,1.082c-0.498,0.452-0.919,0.916-1.251,1.377
		c-0.343,0.475-0.644,1.097-0.895,1.851c-0.239,0.712-0.433,1.441-0.575,2.167c-0.141,0.718-0.252,1.615-0.331,2.667
		c-0.079,1.068-0.13,2.11-0.15,3.098c-0.021,1.004-0.032,2.217-0.032,3.638c0,1.666,0.014,3.029,0.043,4.093
		c0.028,1.061,0.083,2.187,0.162,3.347c0.079,1.177,0.206,2.137,0.377,2.854c0.169,0.702,0.387,1.438,0.648,2.185
		c0.282,0.809,0.666,1.443,1.14,1.887c0.434,0.402,0.936,0.804,1.493,1.192c0.601,0.418,1.324,0.716,2.15,0.885
		c0.774,0.16,1.643,0.293,2.58,0.395c0.946,0.102,2.043,0.152,3.262,0.152c6.388,0,10.536-0.956,12.684-2.922l0.162-0.149V72.457
		h-10.829L309.585,76.699z"/>
	<path fill="#3D8FC7" d="M344.391,74.331c1.189-0.46,2.175-1.187,2.941-2.173c1.095-1.407,1.65-3.558,1.65-6.393
		c0-0.924-0.056-1.772-0.164-2.521c-0.111-0.754-0.267-1.436-0.462-2.026c-0.201-0.615-0.486-1.169-0.847-1.648
		c-0.35-0.463-0.725-0.868-1.114-1.204c-0.407-0.352-0.927-0.648-1.545-0.883c-0.584-0.222-1.164-0.402-1.726-0.535
		c-0.565-0.133-1.268-0.238-2.089-0.313c-0.815-0.073-1.595-0.121-2.317-0.142c-0.727-0.021-1.608-0.032-2.644-0.032h-10.27v32.989
		h5.337V76.248h6.134c1.683,0,2.896,0.153,3.529,0.414c0.41,0.266,0.775,0.694,1.086,1.273c0.327,0.616,0.597,1.396,0.801,2.321
		c0.211,0.957,0.383,1.874,0.51,2.725c0.128,0.862,0.268,1.918,0.418,3.164c0.149,1.255,0.284,2.228,0.399,2.892l0.071,0.414h5.676
		l-1.757-10.012C347.572,76.941,346.357,75.229,344.391,74.331z M343.69,67.46c0,0.77-0.034,1.392-0.101,1.848
		c-0.063,0.422-0.197,0.822-0.396,1.189c-0.178,0.327-0.436,0.565-0.789,0.728c-0.409,0.188-0.954,0.338-1.62,0.442
		c-0.688,0.11-1.579,0.166-2.647,0.166h-6.992V60.747h6.734c0.855,0,1.598,0.024,2.203,0.073c0.608,0.05,1.142,0.109,1.596,0.179
		c0.398,0.061,0.719,0.165,0.954,0.308c0.26,0.159,0.466,0.314,0.613,0.462c0.113,0.113,0.205,0.308,0.268,0.561
		c0.079,0.324,0.128,0.627,0.146,0.904c0.021,0.299,0.031,0.713,0.031,1.242V67.46z"/>
	<polygon fill="#3D8FC7" points="360.298,74.53 372.255,74.53 372.255,70.052 360.298,70.052 360.298,60.768 374.363,60.768 
		373.806,56.462 354.939,56.462 354.939,89.451 373.999,89.451 374.557,85.166 360.298,85.166 	"/>
	<path fill="#3D8FC7" d="M401.348,75.444c-0.115-0.563-0.298-1.08-0.542-1.539c-0.228-0.428-0.459-0.808-0.688-1.128
		c-0.247-0.349-0.598-0.668-1.042-0.948c-0.403-0.254-0.768-0.462-1.096-0.628c-0.354-0.176-0.815-0.335-1.409-0.486
		c-0.568-0.146-1.069-0.262-1.507-0.35c-0.435-0.087-1.014-0.189-1.732-0.304l-7.686-1.311c-0.931-0.157-1.346-0.721-1.346-1.825
		v-3.714c0-0.453,0.037-0.815,0.11-1.077c0.065-0.234,0.194-0.453,0.393-0.667c0.184-0.2,0.488-0.356,0.908-0.467
		c0.485-0.128,1.125-0.229,1.901-0.297c0.789-0.07,1.811-0.105,3.036-0.105c2.738,0,3.847,0.224,4.302,0.415
		c0.494,0.198,0.787,0.557,0.919,1.114c0.022,0.111,0.087,0.6,0.271,2.631l0.052,0.571l4.769-1.098v-0.398
		c0-0.942-0.067-1.789-0.201-2.516c-0.136-0.735-0.336-1.393-0.598-1.958c-0.274-0.587-0.663-1.093-1.152-1.502
		c-0.471-0.394-0.991-0.718-1.547-0.964c-0.553-0.247-1.248-0.44-2.063-0.574c-0.799-0.132-1.625-0.225-2.456-0.275
		c-0.834-0.051-1.837-0.076-2.981-0.076c-1.405,0-2.617,0.048-3.604,0.143c-1.002,0.098-1.934,0.286-2.77,0.56
		c-0.868,0.285-1.583,0.668-2.125,1.139c-0.543,0.473-1.003,1.102-1.367,1.869c-0.355,0.745-0.608,1.624-0.753,2.612
		c-0.138,0.948-0.208,2.11-0.208,3.463c0.045,2.582,0.451,4.418,1.241,5.611c0.807,1.218,2.227,2.007,4.218,2.343l10.677,1.865
		c0.298,0.061,0.664,0.22,0.852,0.917c0.181,0.673,0.279,1.949,0.294,3.797c0.015,0.836,0,1.512-0.041,2.01
		c-0.039,0.471-0.136,0.933-0.286,1.372c-0.135,0.391-0.305,0.674-0.506,0.845c-0.219,0.185-0.568,0.36-1.037,0.52
		c-0.492,0.165-1.073,0.275-1.729,0.329c-0.679,0.057-1.543,0.084-2.643,0.084c-1.299,0-2.339-0.049-3.093-0.146
		c-0.763-0.097-1.381-0.211-1.839-0.339c-0.354-0.099-0.597-0.295-0.764-0.619c-0.208-0.401-0.348-0.767-0.416-1.09
		c-0.074-0.339-0.154-0.95-0.237-1.808c-0.044-0.586-0.089-1.041-0.133-1.362l-0.069-0.507l-4.917,0.797l0.021,0.444
		c0.059,1.321,0.126,2.309,0.206,3.018c0.081,0.727,0.259,1.502,0.527,2.304c0.287,0.854,0.695,1.495,1.216,1.907
		c0.479,0.38,1.134,0.737,2,1.091c0.849,0.347,1.887,0.576,3.087,0.681c1.172,0.101,2.627,0.151,4.325,0.151
		c0.909,0,1.677-0.01,2.305-0.031c0.629-0.022,1.292-0.062,1.987-0.12c0.721-0.061,1.307-0.145,1.791-0.259
		c0.479-0.112,0.979-0.262,1.482-0.445c0.546-0.196,1.001-0.446,1.354-0.742c0.328-0.274,0.662-0.608,0.991-0.991
		c0.353-0.407,0.63-0.883,0.821-1.412c0.179-0.491,0.347-1.062,0.5-1.696c0.156-0.653,0.265-1.374,0.322-2.139
		c0.06-0.755,0.088-1.593,0.088-2.562c0-0.844-0.036-1.615-0.108-2.295C401.55,76.602,401.458,75.987,401.348,75.444z"/>
	<path fill="#3D8FC7" d="M429.34,77.274c-0.073-0.672-0.165-1.287-0.275-1.83c-0.115-0.563-0.298-1.08-0.542-1.539
		c-0.224-0.421-0.456-0.801-0.69-1.128c-0.248-0.35-0.598-0.669-1.041-0.948c-0.402-0.254-0.768-0.462-1.096-0.627
		c-0.35-0.175-0.811-0.334-1.408-0.487c-0.568-0.146-1.069-0.263-1.509-0.35c-0.435-0.087-1.013-0.189-1.73-0.304l-7.687-1.311
		c-0.93-0.157-1.345-0.721-1.345-1.825v-3.714c0-0.453,0.037-0.815,0.11-1.079c0.065-0.233,0.193-0.451,0.392-0.666
		c0.184-0.2,0.488-0.356,0.907-0.467c0.486-0.128,1.126-0.229,1.902-0.297c0.79-0.07,1.812-0.105,3.036-0.105
		c2.739,0,3.847,0.224,4.301,0.415c0.495,0.198,0.788,0.557,0.92,1.114c0.037,0.185,0.128,1.071,0.271,2.632l0.053,0.57l4.766-1.098
		v-0.398c0-0.95-0.067-1.796-0.2-2.518c-0.139-0.744-0.34-1.402-0.599-1.957c-0.276-0.589-0.664-1.095-1.152-1.502
		c-0.472-0.394-0.992-0.719-1.545-0.964c-0.552-0.247-1.246-0.439-2.063-0.574c-0.801-0.132-1.627-0.225-2.455-0.275
		c-0.835-0.051-1.839-0.076-2.983-0.076c-1.404,0-2.615,0.048-3.602,0.143c-1.003,0.098-1.935,0.286-2.77,0.56
		c-0.867,0.285-1.583,0.667-2.125,1.139c-0.544,0.474-1.005,1.103-1.368,1.869c-0.355,0.748-0.609,1.626-0.753,2.612
		c-0.138,0.954-0.208,2.116-0.208,3.462c0.045,2.583,0.451,4.419,1.242,5.611c0.807,1.218,2.227,2.007,4.217,2.343l10.676,1.865
		c0.275,0.056,0.664,0.213,0.852,0.916c0.182,0.677,0.28,1.952,0.296,3.797c0.014,0.846,0,1.522-0.041,2.011
		c-0.039,0.469-0.136,0.93-0.288,1.373c-0.133,0.389-0.302,0.673-0.504,0.843c-0.22,0.187-0.57,0.361-1.04,0.521
		c-0.489,0.165-1.07,0.275-1.728,0.329c-0.68,0.057-1.544,0.084-2.642,0.084c-1.3,0-2.34-0.049-3.094-0.146
		c-0.763-0.097-1.381-0.211-1.838-0.339c-0.355-0.1-0.599-0.296-0.765-0.618c-0.208-0.402-0.348-0.769-0.416-1.088
		c-0.074-0.345-0.154-0.958-0.236-1.811c-0.044-0.586-0.089-1.041-0.133-1.362l-0.069-0.507l-4.917,0.796l0.019,0.444
		c0.057,1.289,0.127,2.305,0.207,3.019c0.081,0.727,0.259,1.502,0.527,2.305c0.293,0.867,0.691,1.491,1.216,1.906
		c0.479,0.379,1.132,0.736,1.999,1.091c0.851,0.347,1.89,0.576,3.088,0.681c1.171,0.101,2.626,0.151,4.326,0.151
		c0.907,0,1.676-0.01,2.303-0.031c0.631-0.022,1.293-0.062,1.989-0.12c0.72-0.061,1.306-0.145,1.791-0.259
		c0.481-0.112,0.98-0.263,1.482-0.445c0.543-0.195,0.998-0.444,1.353-0.741c0.331-0.276,0.665-0.611,0.99-0.991
		c0.354-0.405,0.63-0.881,0.823-1.412c0.181-0.494,0.348-1.065,0.499-1.696c0.155-0.644,0.265-1.363,0.325-2.142
		c0.058-0.77,0.087-1.631,0.087-2.56C429.449,78.725,429.413,77.954,429.34,77.274z"/>
</g>
</svg>
