<?xml version="1.0" encoding="utf-8"?>
<!-- Generator: Adobe Illustrator 16.0.3, SVG Export Plug-In . SVG Version: 6.00 Build 0)  -->
<!DOCTYPE svg PUBLIC "-//W3C//DTD SVG 1.1//EN" "http://www.w3.org/Graphics/SVG/1.1/DTD/svg11.dtd">
<svg version="1.1" id="Ebene_1" xmlns="http://www.w3.org/2000/svg" xmlns:xlink="http://www.w3.org/1999/xlink" x="0px" y="0px"
	 width="654.639px" height="212.433px" viewBox="0 0 654.639 212.433" enable-background="new 0 0 654.639 212.433"
	 xml:space="preserve">
<rect x="-54.34" y="-103.644" display="none" fill="#1D1D1D" width="780" height="382"/>
<g>
	<g>
		<path fill="#3B98D4" stroke="#3B98D4" stroke-width="1.2028" stroke-miterlimit="10" d="M238.562,79.422h-5.173V62.01h-16.974
			v17.412h-5.174v-37.93h5.174v16.496h16.974V41.493h5.173V79.422z"/>
		<path fill="#3B98D4" stroke="#3B98D4" stroke-width="1.2028" stroke-miterlimit="10" d="M274.008,79.422h-21.51v-37.93h21.281
			l0.51,3.92h-16.617v12.194h14.195v4.124h-14.195v13.797h16.846L274.008,79.422z"/>
		<path fill="#3B98D4" stroke="#3B98D4" stroke-width="1.2028" stroke-miterlimit="10" d="M306.268,79.422h-19.293v-37.93h5.174
			v34.035h14.629L306.268,79.422z"/>
		<path fill="#3B98D4" stroke="#3B98D4" stroke-width="1.2028" stroke-miterlimit="10" d="M337.609,79.422h-19.292v-37.93h5.173
			v34.035h14.629L337.609,79.422z"/>
		<path fill="#3B98D4" stroke="#3B98D4" stroke-width="1.2028" stroke-miterlimit="10" d="M363.524,80.033
			c-1.479,0-2.791-0.034-3.938-0.102c-1.147-0.068-2.205-0.233-3.174-0.497c-0.968-0.263-1.796-0.505-2.484-0.726
			c-0.688-0.22-1.309-0.64-1.86-1.26c-0.553-0.62-1.007-1.154-1.363-1.604c-0.357-0.449-0.663-1.196-0.918-2.24
			c-0.255-1.043-0.441-1.935-0.561-2.673s-0.217-1.879-0.293-3.424c-0.076-1.544-0.119-2.868-0.128-3.971
			c-0.009-1.103-0.013-2.698-0.013-4.786c0-2.512,0.068-4.599,0.204-6.262s0.403-3.208,0.803-4.633
			c0.399-1.425,0.926-2.545,1.58-3.36c0.654-0.815,1.546-1.515,2.676-2.101c1.13-0.585,2.447-0.984,3.951-1.196
			c1.503-0.212,3.342-0.318,5.518-0.318c2.056,0,3.813,0.102,5.275,0.306c1.461,0.204,2.756,0.564,3.887,1.082
			c1.13,0.518,2.039,1.163,2.727,1.935c0.688,0.772,1.253,1.786,1.695,3.042c0.441,1.256,0.743,2.66,0.904,4.213
			c0.161,1.553,0.242,3.441,0.242,5.664c0,6.279-0.094,10.412-0.28,12.397c-0.323,3.395-1.104,5.821-2.345,7.28
			c-1.309,1.562-3.534,2.546-6.678,2.953C367.457,79.94,365.647,80.033,363.524,80.033z M367.169,44.904
			c-0.969-0.068-2.184-0.102-3.645-0.102c-1.462,0-2.677,0.034-3.645,0.102c-0.969,0.068-1.814,0.212-2.536,0.433
			c-0.723,0.221-1.278,0.467-1.669,0.738c-0.392,0.271-0.71,0.691-0.956,1.26c-0.246,0.568-0.408,1.15-0.484,1.744
			c-0.076,0.594-0.132,1.4-0.165,2.418c-0.052,3.14-0.077,6.296-0.077,9.47c0,4.786,0.128,8.061,0.383,9.826
			c0.407,2.647,1.181,4.175,2.319,4.583c0.849,0.492,3.126,0.738,6.83,0.738c3.703,0,5.98-0.246,6.83-0.738
			c0.322-0.119,0.615-0.314,0.879-0.585s0.484-0.637,0.663-1.095c0.178-0.458,0.335-0.92,0.471-1.388
			c0.137-0.466,0.246-1.064,0.332-1.794c0.085-0.729,0.152-1.387,0.204-1.973c0.051-0.586,0.084-1.333,0.102-2.24
			c0.017-0.908,0.029-1.659,0.038-2.253c0.009-0.594,0.013-1.383,0.013-2.368c0-3.428-0.025-6.822-0.076-10.182
			c-0.034-1.019-0.09-1.824-0.166-2.418c-0.076-0.594-0.238-1.175-0.484-1.744c-0.246-0.569-0.564-0.989-0.955-1.26
			c-0.392-0.271-0.947-0.518-1.67-0.738C368.982,45.116,368.137,44.972,367.169,44.904z"/>
		<path fill="#3B98D4" stroke="#3B98D4" stroke-width="1.2028" stroke-miterlimit="10" d="M433.854,79.422h-5.25l-2.88-9.699
			h-14.043l-2.778,9.699h-4.97l11.647-37.93h6.906L433.854,79.422z M424.653,66.058l-3.211-11.379l-2.65-9.317
			c-0.985,3.513-1.852,6.534-2.6,9.063l-3.415,11.633H424.653z"/>
		<path fill="#3B98D4" stroke="#3B98D4" stroke-width="1.2028" stroke-miterlimit="10" d="M472.358,60.458v16.267
			c-2.413,2.206-7.298,3.309-14.654,3.309c-1.444,0-2.715-0.06-3.811-0.178s-2.099-0.271-3.007-0.458
			c-0.909-0.187-1.687-0.505-2.332-0.955c-0.646-0.45-1.215-0.904-1.708-1.362c-0.493-0.458-0.892-1.124-1.197-1.999
			c-0.307-0.874-0.558-1.718-0.752-2.533c-0.196-0.815-0.341-1.909-0.434-3.284c-0.094-1.375-0.157-2.689-0.191-3.945
			s-0.051-2.868-0.051-4.837c0-1.68,0.013-3.114,0.038-4.302c0.025-1.188,0.085-2.401,0.179-3.64
			c0.093-1.239,0.221-2.27,0.382-3.093s0.383-1.655,0.663-2.495c0.28-0.84,0.607-1.519,0.981-2.037
			c0.373-0.518,0.841-1.031,1.401-1.54c0.561-0.509,1.186-0.899,1.873-1.171c0.688-0.271,1.491-0.517,2.408-0.738
			c0.918-0.221,1.92-0.369,3.008-0.446c1.087-0.076,2.319-0.114,3.695-0.114c0.085,0,0.212,0,0.382,0
			c1.189,0,2.09,0.009,2.702,0.025c0.611,0.017,1.439,0.081,2.484,0.191s1.848,0.28,2.408,0.509
			c0.562,0.229,1.207,0.569,1.938,1.019s1.274,1.001,1.631,1.655c0.357,0.653,0.671,1.48,0.943,2.482
			c0.271,1.001,0.407,2.155,0.407,3.462c0,0.306-0.017,0.73-0.051,1.273l-4.562,0.865l-0.28-5.015
			c-0.034-1.086-0.654-1.786-1.861-2.1c-1.206-0.314-3.491-0.471-6.855-0.471c-2.294,0-4.026,0.14-5.199,0.42
			c-1.172,0.28-1.987,0.709-2.446,1.286c-0.459,0.577-0.739,1.435-0.841,2.571c-0.153,3.479-0.229,7.043-0.229,10.691
			c0,3.666,0.076,7.229,0.229,10.692c0.085,1.833,0.229,3.021,0.433,3.563c0.323,0.832,1.063,1.392,2.218,1.68
			c1.087,0.272,2.981,0.408,5.684,0.408c5.811,0,9.03-0.391,9.659-1.171c-0.018-1.748-0.025-5.295-0.025-10.641h-6.423l-0.434-3.844
			H472.358z"/>
		<path fill="#3B98D4" stroke="#3B98D4" stroke-width="1.2028" stroke-miterlimit="10" d="M507.243,79.422h-21.51v-37.93h21.28
			l0.51,3.92h-16.617v12.194h14.196v4.124h-14.196v13.797h16.847L507.243,79.422z"/>
		<path fill="#3B98D4" stroke="#3B98D4" stroke-width="1.2028" stroke-miterlimit="10" d="M548.22,79.422h-5.378L524.747,49.46
			v29.962h-4.536v-37.93h5.225l18.247,30.369V41.493h4.537V79.422z"/>
		<path fill="#3B98D4" stroke="#3B98D4" stroke-width="1.2028" stroke-miterlimit="10" d="M582.9,45.413h-9.914v34.01h-5.174v-34.01
			h-9.71v-3.92H582.9V45.413z"/>
		<path fill="#3B98D4" stroke="#3B98D4" stroke-width="1.2028" stroke-miterlimit="10" d="M590.771,83.47
			c1.139,0,2.153-0.399,3.046-1.196c0.892-0.798,1.338-1.748,1.338-2.851c-1.07,0-1.949-0.382-2.638-1.146s-1.032-1.688-1.032-2.775
			c0-1.137,0.335-2.079,1.007-2.826c0.671-0.747,1.584-1.12,2.739-1.12c1.088,0,1.958,0.446,2.612,1.337
			c0.654,0.891,0.981,1.964,0.981,3.22c0,1.425-0.289,2.847-0.866,4.264c-0.578,1.417-1.381,2.592-2.408,3.526
			c-1.028,0.933-2.111,1.4-3.25,1.4c-0.765,0-1.274-0.034-1.529-0.102V83.47z"/>
		<path fill="#3B98D4" d="M222.521,106.831h-6.176v21.186h-3.223v-21.186h-6.049v-2.442h15.448V106.831z"/>
		<path fill="#3B98D4" d="M245.649,128.017h-3.223V117.17h-10.574v10.847h-3.223v-23.628h3.223v10.276h10.574v-10.276h3.223V128.017
			z"/>
		<path fill="#3B98D4" d="M267.73,128.017h-13.399v-23.628h13.256l0.318,2.442h-10.352v7.596h8.843v2.569h-8.843v8.595h10.494
			L267.73,128.017z"/>
		<path fill="#3B98D4" d="M309.653,104.389l-5.064,23.628h-3.445l-4.509-18.601l-4.477,18.601h-3.429l-5.16-23.628h3.397
			l3.667,19.204l4.524-19.204h3.191L303,123.593l3.667-19.204H309.653z"/>
		<path fill="#3B98D4" d="M325.113,128.397c-0.921,0-1.738-0.021-2.453-0.063c-0.714-0.042-1.373-0.146-1.977-0.31
			c-0.604-0.164-1.119-0.314-1.548-0.452s-0.815-0.399-1.159-0.785c-0.344-0.386-0.627-0.719-0.85-0.999
			c-0.222-0.28-0.412-0.745-0.57-1.396c-0.16-0.65-0.275-1.205-0.35-1.665s-0.135-1.171-0.184-2.133
			c-0.047-0.962-0.074-1.787-0.078-2.474c-0.006-0.688-0.009-1.681-0.009-2.981c0-1.564,0.042-2.865,0.128-3.901
			c0.084-1.036,0.25-1.998,0.5-2.886c0.248-0.888,0.576-1.586,0.984-2.093c0.406-0.507,0.963-0.943,1.666-1.308
			c0.704-0.365,1.524-0.613,2.461-0.746c0.937-0.132,2.082-0.198,3.438-0.198c1.28,0,2.376,0.063,3.286,0.19
			s1.717,0.352,2.421,0.674c0.704,0.323,1.271,0.724,1.699,1.205c0.429,0.481,0.78,1.113,1.056,1.895
			c0.275,0.783,0.463,1.657,0.563,2.625s0.151,2.144,0.151,3.528c0,3.912-0.059,6.486-0.175,7.723
			c-0.201,2.114-0.688,3.626-1.461,4.535c-0.815,0.973-2.201,1.586-4.159,1.839C327.563,128.339,326.437,128.397,325.113,128.397z
			 M327.384,106.514c-0.604-0.042-1.36-0.063-2.271-0.063s-1.667,0.021-2.271,0.063c-0.604,0.042-1.13,0.132-1.579,0.27
			c-0.45,0.137-0.797,0.291-1.041,0.459c-0.243,0.169-0.441,0.431-0.595,0.785c-0.153,0.354-0.254,0.716-0.302,1.086
			c-0.047,0.37-0.082,0.872-0.104,1.506c-0.031,1.956-0.047,3.922-0.047,5.899c0,2.981,0.079,5.022,0.238,6.121
			c0.254,1.649,0.734,2.601,1.444,2.854c0.529,0.307,1.947,0.46,4.255,0.46s3.726-0.153,4.255-0.46
			c0.201-0.074,0.384-0.195,0.548-0.365c0.164-0.169,0.302-0.396,0.412-0.682c0.111-0.286,0.209-0.574,0.294-0.864
			s0.153-0.664,0.206-1.118c0.054-0.455,0.096-0.864,0.128-1.229c0.031-0.365,0.053-0.83,0.063-1.396
			c0.01-0.565,0.018-1.033,0.023-1.403c0.005-0.37,0.008-0.861,0.008-1.475c0-2.135-0.016-4.25-0.048-6.343
			c-0.021-0.634-0.056-1.136-0.103-1.506c-0.048-0.37-0.148-0.732-0.302-1.086c-0.153-0.354-0.353-0.616-0.596-0.785
			c-0.243-0.169-0.59-0.322-1.04-0.459S327.986,106.556,327.384,106.514z"/>
		<path fill="#3B98D4" d="M358.958,110.891c0,2.02-0.382,3.518-1.144,4.496c-0.762,0.978-1.825,1.578-3.191,1.8
			c2.032,0.413,3.239,1.703,3.62,3.87l1.223,6.961h-3.445c-0.085-0.486-0.183-1.192-0.294-2.117c-0.11-0.925-0.214-1.707-0.31-2.347
			c-0.095-0.64-0.222-1.319-0.381-2.038c-0.158-0.719-0.368-1.322-0.627-1.808c-0.26-0.486-0.569-0.846-0.929-1.078
			c-0.571-0.243-1.509-0.365-2.811-0.365h-4.905v9.752h-3.207v-23.628h7.224c0.762,0,1.41,0.008,1.945,0.023
			c0.534,0.016,1.098,0.05,1.69,0.103c0.593,0.053,1.09,0.127,1.492,0.222s0.813,0.222,1.23,0.381
			c0.418,0.158,0.762,0.354,1.032,0.586c0.27,0.233,0.526,0.51,0.77,0.833c0.243,0.323,0.434,0.693,0.571,1.11
			s0.246,0.896,0.326,1.435C358.918,109.622,358.958,110.225,358.958,110.891z M355.782,112.144v-2.204
			c0-0.402-0.008-0.716-0.023-0.944c-0.016-0.227-0.056-0.47-0.119-0.729c-0.063-0.259-0.161-0.454-0.294-0.586
			c-0.132-0.132-0.307-0.264-0.523-0.396c-0.218-0.132-0.498-0.225-0.842-0.278c-0.344-0.053-0.746-0.098-1.207-0.135
			c-0.46-0.037-1.013-0.055-1.658-0.055h-5.351v8.928h5.541c0.814,0,1.486-0.042,2.016-0.127c0.529-0.084,0.961-0.203,1.294-0.357
			c0.334-0.153,0.585-0.386,0.755-0.698c0.169-0.312,0.28-0.645,0.333-0.999C355.756,113.208,355.782,112.736,355.782,112.144z"/>
		<path fill="#3B98D4" d="M379.372,128.017h-12.019v-23.628h3.223v21.202h9.113L379.372,128.017z"/>
		<path fill="#3B98D4" d="M404.453,114.125c0,1.449-0.008,2.641-0.024,3.576c-0.016,0.936-0.066,1.893-0.15,2.87
			c-0.085,0.978-0.175,1.752-0.271,2.323c-0.095,0.571-0.272,1.155-0.531,1.752c-0.26,0.597-0.514,1.042-0.762,1.332
			c-0.249,0.291-0.628,0.589-1.136,0.896s-1.006,0.513-1.492,0.618c-0.487,0.106-1.146,0.212-1.977,0.317s-1.646,0.167-2.445,0.182
			c-0.799,0.016-1.813,0.024-3.04,0.024h-5.747v-23.628h8.192c1.333,0,2.461,0.055,3.381,0.167c0.921,0.111,1.744,0.317,2.469,0.618
			c0.726,0.301,1.305,0.68,1.739,1.134c0.434,0.455,0.791,1.06,1.071,1.816s0.471,1.604,0.571,2.545
			C404.402,111.61,404.453,112.762,404.453,114.125z M401.262,114.173c0-0.973-0.003-1.673-0.008-2.101
			c-0.006-0.428-0.043-0.965-0.111-1.61c-0.069-0.645-0.164-1.086-0.286-1.324c-0.121-0.238-0.314-0.542-0.579-0.912
			s-0.574-0.605-0.929-0.706s-0.82-0.228-1.397-0.381c-0.576-0.153-1.22-0.243-1.929-0.27c-0.709-0.026-1.571-0.04-2.588-0.04
			h-3.334v18.76h3.811c0.91,0,1.619-0.008,2.127-0.024c0.509-0.016,1.059-0.061,1.651-0.135c0.593-0.074,1.029-0.171,1.31-0.293
			c0.28-0.121,0.585-0.312,0.913-0.571c0.328-0.259,0.556-0.555,0.683-0.888s0.254-0.772,0.381-1.316s0.207-1.144,0.238-1.8
			c0.032-0.655,0.048-1.448,0.048-2.379V114.173z"/>
		<path fill="#3B98D4" d="M439.041,128.017h-3.271l-1.794-6.042h-8.748l-1.73,6.042h-3.096l7.255-23.628h4.303L439.041,128.017z
			 M433.31,119.692l-2-7.088l-1.651-5.804c-0.614,2.188-1.154,4.07-1.619,5.646l-2.128,7.247H433.31z"/>
		<path fill="#3B98D4" d="M462.486,110.891c0,2.02-0.382,3.518-1.144,4.496c-0.762,0.978-1.825,1.578-3.191,1.8
			c2.032,0.413,3.239,1.703,3.62,3.87l1.223,6.961h-3.445c-0.085-0.486-0.183-1.192-0.294-2.117c-0.11-0.925-0.214-1.707-0.31-2.347
			c-0.095-0.64-0.222-1.319-0.381-2.038c-0.158-0.719-0.368-1.322-0.627-1.808c-0.26-0.486-0.569-0.846-0.929-1.078
			c-0.571-0.243-1.509-0.365-2.811-0.365h-4.905v9.752h-3.207v-23.628h7.224c0.762,0,1.41,0.008,1.945,0.023
			c0.534,0.016,1.098,0.05,1.69,0.103c0.593,0.053,1.09,0.127,1.492,0.222s0.813,0.222,1.23,0.381
			c0.418,0.158,0.762,0.354,1.032,0.586c0.27,0.233,0.526,0.51,0.77,0.833c0.243,0.323,0.434,0.693,0.571,1.11
			s0.246,0.896,0.326,1.435C462.446,109.622,462.486,110.225,462.486,110.891z M459.311,112.144v-2.204
			c0-0.402-0.008-0.716-0.023-0.944c-0.016-0.227-0.056-0.47-0.119-0.729c-0.063-0.259-0.161-0.454-0.294-0.586
			c-0.132-0.132-0.307-0.264-0.523-0.396c-0.218-0.132-0.498-0.225-0.842-0.278c-0.344-0.053-0.746-0.098-1.207-0.135
			c-0.46-0.037-1.013-0.055-1.658-0.055h-5.351v8.928h5.541c0.814,0,1.486-0.042,2.016-0.127c0.529-0.084,0.961-0.203,1.294-0.357
			c0.334-0.153,0.585-0.386,0.755-0.698c0.169-0.312,0.28-0.645,0.333-0.999C459.284,113.208,459.311,112.736,459.311,112.144z"/>
		<path fill="#3B98D4" d="M479.519,128.397c-0.921,0-1.738-0.021-2.453-0.063c-0.714-0.042-1.373-0.146-1.977-0.31
			c-0.604-0.164-1.119-0.314-1.548-0.452s-0.815-0.399-1.159-0.785c-0.344-0.386-0.627-0.719-0.849-0.999
			c-0.223-0.28-0.413-0.745-0.572-1.396c-0.158-0.65-0.275-1.205-0.349-1.665c-0.074-0.46-0.136-1.171-0.183-2.133
			c-0.048-0.962-0.074-1.787-0.08-2.474c-0.005-0.688-0.008-1.681-0.008-2.981c0-1.564,0.042-2.865,0.127-3.901
			s0.252-1.998,0.5-2.886c0.249-0.888,0.577-1.586,0.984-2.093s0.963-0.943,1.667-1.308s1.524-0.613,2.461-0.746
			c0.937-0.132,2.082-0.198,3.438-0.198c1.28,0,2.376,0.063,3.286,0.19s1.717,0.352,2.421,0.674
			c0.704,0.323,1.271,0.724,1.699,1.205c0.429,0.481,0.78,1.113,1.056,1.895c0.275,0.783,0.463,1.657,0.563,2.625
			s0.151,2.144,0.151,3.528c0,3.912-0.059,6.486-0.175,7.723c-0.201,2.114-0.688,3.626-1.461,4.535
			c-0.815,0.973-2.201,1.586-4.159,1.839C481.969,128.339,480.842,128.397,479.519,128.397z M481.789,106.514
			c-0.604-0.042-1.36-0.063-2.271-0.063s-1.667,0.021-2.271,0.063c-0.604,0.042-1.13,0.132-1.579,0.27
			c-0.45,0.137-0.797,0.291-1.04,0.459c-0.244,0.169-0.442,0.431-0.596,0.785c-0.153,0.354-0.254,0.716-0.302,1.086
			s-0.082,0.872-0.104,1.506c-0.031,1.956-0.047,3.922-0.047,5.899c0,2.981,0.079,5.022,0.238,6.121
			c0.254,1.649,0.735,2.601,1.444,2.854c0.529,0.307,1.947,0.46,4.255,0.46s3.726-0.153,4.255-0.46
			c0.201-0.074,0.384-0.195,0.548-0.365c0.164-0.169,0.302-0.396,0.412-0.682c0.111-0.286,0.209-0.574,0.294-0.864
			s0.153-0.664,0.206-1.118c0.054-0.455,0.096-0.864,0.128-1.229c0.031-0.365,0.053-0.83,0.063-1.396
			c0.01-0.565,0.018-1.033,0.023-1.403c0.005-0.37,0.008-0.861,0.008-1.475c0-2.135-0.016-4.25-0.048-6.343
			c-0.021-0.634-0.056-1.136-0.103-1.506c-0.048-0.37-0.148-0.732-0.302-1.086c-0.153-0.354-0.353-0.616-0.596-0.785
			c-0.243-0.169-0.59-0.322-1.04-0.459S482.392,106.556,481.789,106.514z"/>
		<path fill="#3B98D4" d="M514.602,104.389v14.795c0,1.269-0.056,2.358-0.167,3.267s-0.31,1.715-0.596,2.418
			c-0.285,0.704-0.643,1.274-1.071,1.713c-0.429,0.439-0.99,0.798-1.683,1.078c-0.693,0.28-1.469,0.473-2.326,0.579
			c-0.857,0.105-1.895,0.158-3.111,0.158c-1.175,0-2.176-0.047-3.001-0.143s-1.588-0.272-2.286-0.531
			c-0.698-0.259-1.262-0.603-1.69-1.031s-0.797-0.988-1.104-1.681c-0.308-0.692-0.521-1.509-0.644-2.45
			c-0.121-0.941-0.183-2.067-0.183-3.378v-14.795h3.224v15.208c0,0.877,0.002,1.512,0.008,1.903c0.005,0.391,0.034,0.87,0.087,1.435
			c0.053,0.566,0.122,0.952,0.206,1.158c0.085,0.206,0.226,0.462,0.421,0.769c0.196,0.307,0.418,0.5,0.667,0.579
			c0.249,0.079,0.59,0.177,1.024,0.293c0.434,0.117,0.902,0.183,1.404,0.198c0.503,0.016,1.13,0.024,1.882,0.024
			c0.889,0,1.633-0.026,2.23-0.079s1.119-0.159,1.563-0.317c0.445-0.159,0.786-0.341,1.024-0.547
			c0.238-0.207,0.429-0.51,0.571-0.912c0.144-0.401,0.235-0.819,0.278-1.252c0.042-0.434,0.063-1.01,0.063-1.729l-0.016-16.73
			H514.602z"/>
		<path fill="#3B98D4" d="M540.556,128.017h-3.351l-11.271-18.665v18.665h-2.826v-23.628h3.255l11.367,18.918v-18.918h2.826V128.017
			z"/>
		<path fill="#3B98D4" d="M566.813,114.125c0,1.449-0.008,2.641-0.024,3.576c-0.016,0.936-0.066,1.893-0.15,2.87
			c-0.085,0.978-0.175,1.752-0.271,2.323c-0.095,0.571-0.272,1.155-0.531,1.752c-0.26,0.597-0.514,1.042-0.762,1.332
			c-0.249,0.291-0.628,0.589-1.136,0.896s-1.006,0.513-1.492,0.618c-0.487,0.106-1.146,0.212-1.977,0.317s-1.646,0.167-2.445,0.182
			c-0.799,0.016-1.813,0.024-3.04,0.024h-5.747v-23.628h8.192c1.333,0,2.461,0.055,3.381,0.167c0.921,0.111,1.744,0.317,2.469,0.618
			c0.726,0.301,1.305,0.68,1.739,1.134c0.434,0.455,0.791,1.06,1.071,1.816s0.471,1.604,0.571,2.545
			C566.762,111.61,566.813,112.762,566.813,114.125z M563.621,114.173c0-0.973-0.003-1.673-0.008-2.101
			c-0.006-0.428-0.043-0.965-0.111-1.61c-0.069-0.645-0.164-1.086-0.286-1.324c-0.121-0.238-0.314-0.542-0.579-0.912
			s-0.574-0.605-0.929-0.706s-0.82-0.228-1.397-0.381c-0.576-0.153-1.22-0.243-1.929-0.27c-0.709-0.026-1.571-0.04-2.588-0.04
			h-3.334v18.76h3.811c0.91,0,1.619-0.008,2.127-0.024c0.509-0.016,1.059-0.061,1.651-0.135c0.593-0.074,1.029-0.171,1.31-0.293
			c0.28-0.121,0.585-0.312,0.913-0.571c0.328-0.259,0.556-0.555,0.683-0.888s0.254-0.772,0.381-1.316s0.207-1.144,0.238-1.8
			c0.032-0.655,0.048-1.448,0.048-2.379V114.173z"/>
		<path fill="#3B98D4" d="M599.208,104.389l-7.16,15.414v8.214h-3.207v-8.214l-6.953-15.414h3.509l5.159,12.099l5.255-12.099
			H599.208z"/>
		<path fill="#3B98D4" d="M613.764,128.397c-0.921,0-1.738-0.021-2.453-0.063c-0.714-0.042-1.373-0.146-1.977-0.31
			c-0.604-0.164-1.119-0.314-1.548-0.452s-0.815-0.399-1.159-0.785c-0.344-0.386-0.627-0.719-0.849-0.999
			c-0.223-0.28-0.413-0.745-0.572-1.396c-0.158-0.65-0.275-1.205-0.349-1.665c-0.074-0.46-0.136-1.171-0.183-2.133
			c-0.048-0.962-0.074-1.787-0.08-2.474c-0.005-0.688-0.008-1.681-0.008-2.981c0-1.564,0.042-2.865,0.127-3.901
			s0.252-1.998,0.5-2.886c0.249-0.888,0.577-1.586,0.984-2.093s0.963-0.943,1.667-1.308s1.524-0.613,2.461-0.746
			c0.937-0.132,2.082-0.198,3.438-0.198c1.28,0,2.376,0.063,3.286,0.19s1.717,0.352,2.421,0.674
			c0.704,0.323,1.271,0.724,1.699,1.205c0.429,0.481,0.78,1.113,1.056,1.895c0.275,0.783,0.463,1.657,0.563,2.625
			s0.151,2.144,0.151,3.528c0,3.912-0.059,6.486-0.175,7.723c-0.201,2.114-0.688,3.626-1.461,4.535
			c-0.815,0.973-2.201,1.586-4.159,1.839C616.214,128.339,615.087,128.397,613.764,128.397z M616.034,106.514
			c-0.604-0.042-1.36-0.063-2.271-0.063s-1.667,0.021-2.271,0.063c-0.604,0.042-1.13,0.132-1.579,0.27
			c-0.45,0.137-0.797,0.291-1.04,0.459c-0.244,0.169-0.442,0.431-0.596,0.785c-0.153,0.354-0.254,0.716-0.302,1.086
			s-0.082,0.872-0.104,1.506c-0.031,1.956-0.047,3.922-0.047,5.899c0,2.981,0.079,5.022,0.238,6.121
			c0.254,1.649,0.735,2.601,1.444,2.854c0.529,0.307,1.947,0.46,4.255,0.46s3.726-0.153,4.255-0.46
			c0.201-0.074,0.384-0.195,0.548-0.365c0.164-0.169,0.302-0.396,0.412-0.682c0.111-0.286,0.209-0.574,0.294-0.864
			s0.153-0.664,0.206-1.118c0.054-0.455,0.096-0.864,0.128-1.229c0.031-0.365,0.053-0.83,0.063-1.396
			c0.01-0.565,0.018-1.033,0.023-1.403c0.005-0.37,0.008-0.861,0.008-1.475c0-2.135-0.016-4.25-0.048-6.343
			c-0.021-0.634-0.056-1.136-0.103-1.506c-0.048-0.37-0.148-0.732-0.302-1.086c-0.153-0.354-0.353-0.616-0.596-0.785
			c-0.243-0.169-0.59-0.322-1.04-0.459S616.637,106.556,616.034,106.514z"/>
		<path fill="#3B98D4" d="M648.848,104.389v14.795c0,1.269-0.056,2.358-0.167,3.267s-0.31,1.715-0.596,2.418
			c-0.285,0.704-0.643,1.274-1.071,1.713c-0.429,0.439-0.99,0.798-1.683,1.078c-0.693,0.28-1.469,0.473-2.326,0.579
			c-0.857,0.105-1.895,0.158-3.111,0.158c-1.175,0-2.176-0.047-3.001-0.143s-1.588-0.272-2.286-0.531
			c-0.698-0.259-1.262-0.603-1.69-1.031s-0.797-0.988-1.104-1.681c-0.308-0.692-0.521-1.509-0.644-2.45
			c-0.121-0.941-0.183-2.067-0.183-3.378v-14.795h3.224v15.208c0,0.877,0.002,1.512,0.008,1.903c0.005,0.391,0.034,0.87,0.087,1.435
			c0.053,0.566,0.122,0.952,0.206,1.158c0.085,0.206,0.226,0.462,0.421,0.769c0.196,0.307,0.418,0.5,0.667,0.579
			c0.249,0.079,0.59,0.177,1.024,0.293c0.434,0.117,0.902,0.183,1.404,0.198c0.503,0.016,1.13,0.024,1.882,0.024
			c0.889,0,1.633-0.026,2.23-0.079s1.119-0.159,1.563-0.317c0.445-0.159,0.786-0.341,1.024-0.547
			c0.238-0.207,0.429-0.51,0.571-0.912c0.144-0.401,0.235-0.819,0.278-1.252c0.042-0.434,0.063-1.01,0.063-1.729l-0.016-16.73
			H648.848z"/>
		<path fill="#3B98D4" d="M212.837,166.989h-3.223v-23.628h3.223V166.989z"/>
		<path fill="#3B98D4" d="M237.172,160.06c0,0.688-0.021,1.309-0.063,1.863c-0.042,0.555-0.119,1.063-0.23,1.522
			c-0.111,0.46-0.23,0.864-0.357,1.213c-0.127,0.349-0.307,0.658-0.54,0.928s-0.463,0.499-0.69,0.689
			c-0.228,0.19-0.524,0.352-0.889,0.484c-0.365,0.132-0.717,0.237-1.056,0.316c-0.339,0.08-0.762,0.141-1.27,0.183
			c-0.508,0.042-0.993,0.071-1.453,0.087c-0.46,0.017-1.024,0.024-1.69,0.024c-1.26,0-2.315-0.037-3.167-0.111
			s-1.577-0.232-2.175-0.476c-0.598-0.243-1.062-0.494-1.389-0.753c-0.329-0.26-0.587-0.672-0.778-1.237
			c-0.19-0.565-0.315-1.107-0.373-1.625c-0.058-0.519-0.108-1.253-0.151-2.205l2.938-0.476c0.032,0.233,0.063,0.561,0.095,0.983
			c0.063,0.655,0.124,1.118,0.183,1.388c0.058,0.27,0.172,0.568,0.341,0.896c0.169,0.328,0.434,0.542,0.793,0.643
			s0.831,0.188,1.413,0.262s1.36,0.111,2.334,0.111c0.804,0,1.466-0.021,1.984-0.063s0.974-0.13,1.365-0.262
			s0.688-0.283,0.889-0.452s0.362-0.431,0.484-0.785c0.122-0.354,0.198-0.722,0.23-1.102c0.032-0.381,0.042-0.889,0.032-1.522
			c-0.011-1.396-0.087-2.36-0.23-2.895c-0.143-0.533-0.447-0.849-0.913-0.943l-7.906-1.379c-1.376-0.232-2.334-0.756-2.874-1.57
			c-0.54-0.814-0.826-2.13-0.857-3.949c0-0.973,0.05-1.805,0.151-2.498s0.275-1.301,0.524-1.824
			c0.249-0.523,0.556-0.944,0.921-1.261c0.365-0.317,0.847-0.573,1.445-0.769c0.598-0.196,1.254-0.328,1.968-0.396
			c0.715-0.069,1.59-0.103,2.628-0.103c0.847,0,1.574,0.019,2.183,0.055c0.609,0.037,1.201,0.103,1.778,0.198
			c0.577,0.095,1.056,0.228,1.437,0.396c0.381,0.169,0.733,0.389,1.056,0.658c0.323,0.27,0.574,0.598,0.754,0.983
			c0.18,0.386,0.317,0.838,0.413,1.355c0.096,0.518,0.143,1.116,0.143,1.792l-2.826,0.65c-0.106-1.163-0.175-1.824-0.207-1.982
			c-0.127-0.539-0.429-0.904-0.905-1.094c-0.53-0.222-1.635-0.333-3.318-0.333c-0.921,0-1.68,0.027-2.278,0.08
			s-1.087,0.129-1.468,0.23c-0.381,0.101-0.665,0.251-0.85,0.452c-0.185,0.201-0.31,0.415-0.373,0.642
			c-0.063,0.228-0.095,0.526-0.095,0.896v2.744c0,0.994,0.434,1.565,1.302,1.712l5.684,0.968c0.529,0.085,0.953,0.158,1.27,0.222
			c0.318,0.063,0.683,0.148,1.096,0.254s0.735,0.217,0.968,0.333s0.492,0.265,0.778,0.444c0.286,0.18,0.508,0.381,0.667,0.603
			s0.32,0.486,0.484,0.793c0.164,0.307,0.286,0.652,0.365,1.038c0.079,0.386,0.145,0.825,0.198,1.316
			C237.145,158.894,237.172,159.446,237.172,160.06z"/>
		<path fill="#3B98D4" d="M272.315,166.989h-3.35l-11.272-18.665v18.665h-2.826v-23.628h3.254l11.368,18.918v-18.918h2.826V166.989z
			"/>
		<path fill="#3B98D4" d="M289.633,167.37c-0.921,0-1.739-0.021-2.453-0.063c-0.714-0.043-1.373-0.146-1.977-0.31
			c-0.603-0.164-1.119-0.314-1.548-0.452c-0.429-0.137-0.815-0.398-1.159-0.784c-0.344-0.387-0.627-0.72-0.85-0.999
			c-0.222-0.28-0.413-0.746-0.571-1.396c-0.159-0.65-0.275-1.206-0.35-1.665c-0.074-0.46-0.135-1.171-0.183-2.134
			c-0.047-0.962-0.074-1.786-0.079-2.474c-0.005-0.687-0.008-1.681-0.008-2.98c0-1.564,0.042-2.865,0.127-3.901
			c0.084-1.036,0.251-1.998,0.5-2.886c0.249-0.888,0.577-1.586,0.984-2.093c0.407-0.507,0.963-0.943,1.667-1.308
			c0.704-0.365,1.524-0.613,2.46-0.746c0.937-0.132,2.083-0.198,3.438-0.198c1.28,0,2.376,0.063,3.286,0.19s1.717,0.352,2.421,0.674
			c0.704,0.323,1.27,0.724,1.699,1.205c0.429,0.481,0.78,1.113,1.056,1.895c0.275,0.783,0.463,1.657,0.563,2.625
			s0.151,2.144,0.151,3.528c0,3.912-0.058,6.486-0.175,7.723c-0.201,2.115-0.688,3.627-1.46,4.535
			c-0.815,0.974-2.202,1.586-4.16,1.84C292.083,167.312,290.956,167.37,289.633,167.37z M291.903,145.486
			c-0.603-0.042-1.36-0.063-2.27-0.063c-0.911,0-1.667,0.021-2.271,0.063c-0.603,0.042-1.13,0.132-1.58,0.27
			c-0.45,0.137-0.796,0.291-1.04,0.459c-0.244,0.169-0.442,0.431-0.595,0.785c-0.153,0.354-0.254,0.716-0.302,1.086
			c-0.047,0.37-0.082,0.872-0.103,1.506c-0.032,1.957-0.048,3.922-0.048,5.899c0,2.981,0.08,5.021,0.238,6.121
			c0.254,1.649,0.735,2.601,1.445,2.854c0.529,0.307,1.947,0.46,4.255,0.46c2.307,0,3.725-0.153,4.255-0.46
			c0.201-0.074,0.383-0.195,0.547-0.364s0.302-0.396,0.413-0.683c0.111-0.285,0.209-0.573,0.293-0.864
			c0.085-0.29,0.153-0.663,0.207-1.117c0.053-0.455,0.095-0.864,0.127-1.229c0.032-0.364,0.053-0.83,0.063-1.396
			c0.01-0.565,0.019-1.033,0.024-1.403s0.008-0.861,0.008-1.475c0-2.135-0.016-4.25-0.047-6.343
			c-0.021-0.634-0.056-1.136-0.104-1.506c-0.047-0.37-0.148-0.732-0.301-1.086c-0.154-0.354-0.352-0.616-0.596-0.785
			c-0.244-0.169-0.59-0.322-1.04-0.459C293.033,145.619,292.507,145.528,291.903,145.486z"/>
		<path fill="#3B98D4" d="M320.001,145.803h-6.176v21.186h-3.223v-21.186h-6.049v-2.442h15.448V145.803z"/>
		<path fill="#3B98D4" d="M359.955,143.361l-5.064,23.628h-3.445l-4.509-18.601l-4.477,18.601h-3.43l-5.16-23.628h3.397
			l3.668,19.203l4.524-19.203h3.191l4.651,19.203l3.668-19.203H359.955z"/>
		<path fill="#3B98D4" d="M383.798,166.989h-3.224v-10.847h-10.573v10.847h-3.223v-23.628h3.223v10.276h10.573v-10.276h3.224
			V166.989z"/>
		<path fill="#3B98D4" d="M409.26,166.989h-3.271l-1.794-6.042h-8.748l-1.73,6.042h-3.096l7.255-23.628h4.303L409.26,166.989z
			 M403.528,158.664l-2-7.088l-1.651-5.805c-0.614,2.188-1.154,4.07-1.619,5.646l-2.128,7.247H403.528z"/>
		<path fill="#3B98D4" d="M429.229,145.803h-6.176v21.186h-3.223v-21.186h-6.049v-2.442h15.447V145.803z"/>
		<path fill="#3B98D4" d="M448.162,166.989h-3.223v-23.628h3.223V166.989z"/>
		<path fill="#3B98D4" d="M469.782,145.803h-6.176v21.186h-3.223v-21.186h-6.049v-2.442h15.447V145.803z"/>
		<path fill="#3B98D4" d="M501.116,160.06c0,0.688-0.021,1.309-0.063,1.863s-0.119,1.063-0.229,1.522
			c-0.111,0.46-0.23,0.864-0.357,1.213s-0.308,0.658-0.54,0.928s-0.463,0.499-0.69,0.689s-0.524,0.352-0.89,0.484
			c-0.364,0.132-0.717,0.237-1.056,0.316c-0.339,0.08-0.762,0.141-1.27,0.183s-0.992,0.071-1.453,0.087
			c-0.46,0.017-1.023,0.024-1.69,0.024c-1.26,0-2.315-0.037-3.167-0.111c-0.853-0.074-1.578-0.232-2.176-0.476
			s-1.061-0.494-1.389-0.753c-0.328-0.26-0.588-0.672-0.778-1.237s-0.314-1.107-0.373-1.625c-0.059-0.519-0.108-1.253-0.15-2.205
			l2.937-0.476c0.032,0.233,0.063,0.561,0.096,0.983c0.063,0.655,0.124,1.118,0.183,1.388c0.058,0.27,0.172,0.568,0.341,0.896
			c0.17,0.328,0.435,0.542,0.794,0.643s0.831,0.188,1.413,0.262s1.36,0.111,2.334,0.111c0.804,0,1.466-0.021,1.984-0.063
			s0.974-0.13,1.365-0.262s0.688-0.283,0.89-0.452c0.2-0.169,0.362-0.431,0.483-0.785c0.122-0.354,0.199-0.722,0.23-1.102
			c0.032-0.381,0.042-0.889,0.032-1.522c-0.011-1.396-0.088-2.36-0.23-2.895c-0.143-0.533-0.447-0.849-0.913-0.943l-7.906-1.379
			c-1.376-0.232-2.334-0.756-2.874-1.57c-0.539-0.814-0.825-2.13-0.856-3.949c0-0.973,0.05-1.805,0.15-2.498
			s0.275-1.301,0.524-1.824c0.248-0.523,0.556-0.944,0.92-1.261c0.365-0.317,0.847-0.573,1.445-0.769
			c0.598-0.196,1.254-0.328,1.969-0.396c0.714-0.069,1.59-0.103,2.627-0.103c0.847,0,1.574,0.019,2.184,0.055
			c0.608,0.037,1.201,0.103,1.777,0.198c0.577,0.095,1.057,0.228,1.438,0.396c0.381,0.169,0.732,0.389,1.056,0.658
			c0.322,0.27,0.574,0.598,0.754,0.983s0.317,0.838,0.413,1.355c0.095,0.518,0.143,1.116,0.143,1.792l-2.826,0.65
			c-0.105-1.163-0.175-1.824-0.206-1.982c-0.127-0.539-0.429-0.904-0.905-1.094c-0.529-0.222-1.635-0.333-3.317-0.333
			c-0.921,0-1.681,0.027-2.278,0.08c-0.599,0.053-1.088,0.129-1.469,0.23s-0.664,0.251-0.85,0.452
			c-0.186,0.201-0.31,0.415-0.373,0.642c-0.063,0.228-0.096,0.526-0.096,0.896v2.744c0,0.994,0.435,1.565,1.303,1.712l5.684,0.968
			c0.528,0.085,0.952,0.158,1.27,0.222s0.683,0.148,1.096,0.254s0.735,0.217,0.969,0.333c0.232,0.116,0.492,0.265,0.777,0.444
			c0.286,0.18,0.508,0.381,0.667,0.603s0.32,0.486,0.484,0.793s0.286,0.652,0.365,1.038s0.146,0.825,0.198,1.316
			S501.116,159.446,501.116,160.06z"/>
		<path fill="#3B98D4" d="M522.625,166.989h-13.399v-23.628h13.257l0.317,2.442h-10.352v7.596h8.843v2.568h-8.843v8.596h10.494
			L522.625,166.989z"/>
		<path fill="#3B98D4" d="M544.103,166.989h-13.399v-23.628h13.257l0.317,2.442h-10.352v7.596h8.843v2.568h-8.843v8.596h10.494
			L544.103,166.989z"/>
		<path fill="#3B98D4" d="M551.466,166.989l1.572-23.771h3.318l6.604,18.601l6.382-18.601h3.493l1.571,23.771h-3.144l-1.143-19.045
			l-6.256,19.045h-1.937l-6.684-18.902l-1.017,18.902H551.466z"/>
		<path fill="#3B98D4" d="M597.964,160.06c0,0.688-0.021,1.309-0.063,1.863s-0.119,1.063-0.229,1.522
			c-0.111,0.46-0.23,0.864-0.357,1.213s-0.308,0.658-0.54,0.928s-0.463,0.499-0.69,0.689s-0.524,0.352-0.89,0.484
			c-0.364,0.132-0.717,0.237-1.056,0.316c-0.339,0.08-0.762,0.141-1.27,0.183s-0.992,0.071-1.453,0.087
			c-0.46,0.017-1.023,0.024-1.69,0.024c-1.26,0-2.315-0.037-3.167-0.111c-0.853-0.074-1.578-0.232-2.176-0.476
			s-1.061-0.494-1.389-0.753c-0.328-0.26-0.588-0.672-0.778-1.237s-0.314-1.107-0.373-1.625c-0.059-0.519-0.108-1.253-0.15-2.205
			l2.937-0.476c0.032,0.233,0.063,0.561,0.096,0.983c0.063,0.655,0.124,1.118,0.183,1.388c0.058,0.27,0.172,0.568,0.341,0.896
			c0.17,0.328,0.435,0.542,0.794,0.643s0.831,0.188,1.413,0.262s1.36,0.111,2.334,0.111c0.804,0,1.466-0.021,1.984-0.063
			s0.974-0.13,1.365-0.262s0.688-0.283,0.89-0.452c0.2-0.169,0.362-0.431,0.483-0.785c0.122-0.354,0.199-0.722,0.23-1.102
			c0.032-0.381,0.042-0.889,0.032-1.522c-0.011-1.396-0.088-2.36-0.23-2.895c-0.143-0.533-0.447-0.849-0.913-0.943l-7.906-1.379
			c-1.376-0.232-2.334-0.756-2.874-1.57c-0.539-0.814-0.825-2.13-0.856-3.949c0-0.973,0.05-1.805,0.15-2.498
			s0.275-1.301,0.524-1.824c0.248-0.523,0.556-0.944,0.92-1.261c0.365-0.317,0.847-0.573,1.445-0.769
			c0.598-0.196,1.254-0.328,1.969-0.396c0.714-0.069,1.59-0.103,2.627-0.103c0.847,0,1.574,0.019,2.184,0.055
			c0.608,0.037,1.201,0.103,1.777,0.198c0.577,0.095,1.057,0.228,1.438,0.396c0.381,0.169,0.732,0.389,1.056,0.658
			c0.322,0.27,0.574,0.598,0.754,0.983s0.317,0.838,0.413,1.355c0.095,0.518,0.143,1.116,0.143,1.792l-2.826,0.65
			c-0.105-1.163-0.175-1.824-0.206-1.982c-0.127-0.539-0.429-0.904-0.905-1.094c-0.529-0.222-1.635-0.333-3.317-0.333
			c-0.921,0-1.681,0.027-2.278,0.08c-0.599,0.053-1.088,0.129-1.469,0.23s-0.664,0.251-0.85,0.452
			c-0.186,0.201-0.31,0.415-0.373,0.642c-0.063,0.228-0.096,0.526-0.096,0.896v2.744c0,0.994,0.435,1.565,1.303,1.712l5.684,0.968
			c0.528,0.085,0.952,0.158,1.27,0.222s0.683,0.148,1.096,0.254s0.735,0.217,0.969,0.333c0.232,0.116,0.492,0.265,0.777,0.444
			c0.286,0.18,0.508,0.381,0.667,0.603s0.32,0.486,0.484,0.793s0.286,0.652,0.365,1.038s0.146,0.825,0.198,1.316
			S597.964,159.446,597.964,160.06z"/>
	</g>
	<g>
		<path fill-rule="evenodd" clip-rule="evenodd" fill="#3B98D4" d="M92.241,212.433c-0.049,0-0.098,0-0.147,0
			c-0.108-0.098-0.208-0.207-0.326-0.289c-0.161-0.111-0.336-0.2-0.506-0.299c-11.565-6.675-23.13-13.351-34.695-20.027
			c-11.565-6.675-23.129-13.351-34.694-20.027c-7.023-4.056-14.046-8.112-21.069-12.168c-0.17-0.098-0.338-0.2-0.517-0.277
			c-0.083-0.036-0.19-0.015-0.287-0.021c0-35.405,0-70.812,0-106.217c0.095-0.016,0.201-0.012,0.285-0.052
			c0.198-0.096,0.387-0.212,0.578-0.321c2.397-1.384,4.795-2.769,7.192-4.152c12.836-7.41,25.672-14.82,38.508-22.23
			c13.77-7.949,27.54-15.897,41.31-23.846c1.294-0.747,2.59-1.492,3.881-2.244c0.123-0.07,0.277-0.109,0.339-0.262
			c0.049,0,0.098,0,0.147,0c0.021,0.042,0.03,0.101,0.064,0.122c0.186,0.118,0.376,0.229,0.567,0.339
			c6.893,3.979,13.786,7.959,20.679,11.938c11.58,6.687,23.16,13.373,34.74,20.059c10.329,5.964,20.659,11.925,30.987,17.889
			c1.589,0.918,3.174,1.841,4.761,2.761c0,35.405,0,70.812,0,106.217c-0.284,0.086-0.512,0.273-0.763,0.418
			c-3.841,2.212-7.681,4.429-11.52,6.646c-13.214,7.63-26.427,15.261-39.641,22.89c-13.066,7.543-26.133,15.085-39.199,22.627
			c-0.169,0.098-0.344,0.189-0.503,0.302C92.339,212.26,92.297,212.355,92.241,212.433z M92.153,20.172
			c-0.243,0.132-0.438,0.231-0.628,0.342c-4.415,2.547-8.83,5.095-13.244,7.644c-5.942,3.432-11.883,6.863-17.825,10.294
			c-6.494,3.75-12.987,7.501-19.481,11.25c-6.516,3.761-13.032,7.521-19.548,11.281c-1.019,0.589-2.041,1.172-3.056,1.766
			c-0.23,0.135-0.487,0.235-0.678,0.479c-0.055,0.342-0.032,0.71-0.032,1.076c-0.001,27.876-0.001,55.752-0.001,83.629
			c0,0.171-0.002,0.343,0,0.514c0.013,0.851-0.058,0.743,0.649,1.15c4.159,2.402,8.319,4.803,12.479,7.205
			c5.9,3.405,11.8,6.813,17.7,10.218c5.772,3.334,11.545,6.667,17.317,9.999c5.582,3.222,11.164,6.443,16.745,9.665
			c3.014,1.74,6.025,3.483,9.04,5.221c0.598,0.345,0.522,0.342,1.127-0.007c1.996-1.15,3.988-2.306,5.983-3.458
			c5.56-3.209,11.121-6.419,16.682-9.629c6.154-3.554,12.308-7.107,18.462-10.661c5.582-3.222,11.163-6.444,16.745-9.667
			c5.136-2.965,10.273-5.927,15.41-8.892c0.148-0.086,0.293-0.177,0.439-0.268c0.135-0.084,0.203-0.206,0.204-0.366
			c0.001-0.245,0.008-0.49,0.008-0.735c0.001-2.599,0.002-5.198,0.002-7.797c0-24.86,0-49.721,0-74.581c0-0.662,0-1.324-0.005-1.986
			c-0.001-0.219-0.017-0.438-0.024-0.635c-0.059-0.058-0.089-0.101-0.13-0.124c-24.382-14.083-48.765-28.164-73.147-42.245
			C92.964,20.632,92.581,20.416,92.153,20.172z"/>
		<path fill-rule="evenodd" clip-rule="evenodd" fill="#3B98D4" d="M92.2,31.191c0.188,0.102,0.404,0.214,0.616,0.336
			c9.444,5.45,18.888,10.901,28.33,16.354c9.358,5.404,18.714,10.811,28.072,16.215c2.313,1.336,4.626,2.671,6.939,4.005
			c0.149,0.086,0.294,0.177,0.444,0.262c0.566,0.322,0.54,0.345,0.546,0.919c0.002,0.196,0.001,0.393,0.001,0.589
			c0,24.221,0,48.442,0,72.663c0,0.27-0.012,0.54-0.001,0.809c0.011,0.28-0.118,0.463-0.356,0.588
			c-0.13,0.067-0.254,0.147-0.381,0.221c-9.401,5.427-18.803,10.854-28.205,16.279c-6.473,3.735-12.949,7.467-19.422,11.201
			c-5.263,3.038-10.525,6.078-15.788,9.116c-0.212,0.122-0.423,0.246-0.641,0.36c-0.138,0.071-0.286,0.067-0.424-0.005
			c-0.195-0.104-0.386-0.214-0.577-0.323c-4.86-2.806-9.719-5.611-14.579-8.416c-5.348-3.088-10.697-6.173-16.045-9.26
			c-5.878-3.395-11.755-6.79-17.633-10.184c-5.072-2.929-10.146-5.854-15.217-8.782c-0.19-0.11-0.376-0.229-0.56-0.351
			c-0.083-0.057-0.138-0.145-0.145-0.246c-0.013-0.194-0.021-0.392-0.022-0.587c-0.001-0.785,0.002-1.569,0.002-2.354
			c0-13.385,0-26.771,0-40.156c0-10.223,0-20.445,0.007-30.668c0-1.273-0.174-1.01,0.935-1.651
			c6.596-3.817,13.197-7.624,19.796-11.436c7.151-4.13,14.301-8.262,21.452-12.391c6.748-3.896,13.497-7.79,20.246-11.686
			c0.637-0.366,1.271-0.738,1.91-1.103C91.712,31.392,91.913,31.245,92.2,31.191z M121.575,74.933c0,0.001,0,0.002,0,0.003
			c-7.797,0-15.593,0-23.39,0c-0.245,0-0.49,0-0.735-0.004c-0.098-0.001-0.195-0.013-0.292-0.023
			c-0.122-0.013-0.225-0.116-0.231-0.244c-0.013-0.269-0.023-0.538-0.023-0.808c0-5.639,0.001-11.277,0.001-16.917
			c0-0.393,0-0.784-0.006-1.177c-0.001-0.121-0.018-0.243-0.032-0.364c-0.01-0.088-0.105-0.193-0.188-0.203
			c-0.169-0.02-0.34-0.043-0.51-0.043c-2.623-0.001-5.247,0-7.87,0.003c-0.196,0.001-0.392,0.012-0.587,0.025
			c-0.165,0.012-0.285,0.124-0.291,0.275c-0.011,0.27-0.018,0.539-0.018,0.808c0,3.678,0.001,7.355,0.002,11.033
			c0,2.183-0.001,4.363-0.003,6.546c0,0.245-0.003,0.491-0.016,0.735c-0.012,0.235-0.126,0.34-0.38,0.348
			c-0.294,0.01-0.589,0.01-0.883,0.01c-15.618,0-31.235,0-46.853,0c-0.245,0-0.491-0.001-0.735,0.003
			c-0.073,0.001-0.146,0.017-0.218,0.025c-0.091,0.012-0.161,0.141-0.115,0.228c0.162,0.302,0.321,0.606,0.493,0.903
			c2.892,5.009,5.786,10.018,8.679,15.026c3.383,5.857,6.765,11.716,10.147,17.574c1.592,2.76,3.183,5.521,4.774,8.281
			c0.11,0.19,0.21,0.387,0.312,0.582c0.042,0.078,0.011,0.225-0.055,0.268c-0.164,0.107-0.328,0.215-0.498,0.313
			c-5.097,2.934-10.196,5.866-15.294,8.798c-0.255,0.147-0.511,0.291-0.764,0.44c-0.084,0.05-0.163,0.108-0.243,0.164
			c-0.078,0.056-0.115,0.182-0.072,0.261c0.116,0.217,0.231,0.432,0.354,0.645c1.286,2.229,2.573,4.457,3.858,6.688
			c0.459,0.796,0.391,0.723,1.152,0.285c3.59-2.064,7.174-4.14,10.761-6.21c1.613-0.931,3.227-1.861,4.841-2.789
			c0.212-0.122,0.432-0.231,0.649-0.342c0.081-0.041,0.214-0.006,0.265,0.07c0.147,0.226,0.297,0.45,0.432,0.683
			c1.237,2.144,2.47,4.291,3.708,6.435c4.167,7.217,8.334,14.433,12.502,21.648c2.489,4.308,4.978,8.616,7.467,12.924
			c0.098,0.169,0.197,0.339,0.3,0.506c0.102,0.165,0.248,0.177,0.34,0.024c0.14-0.231,0.275-0.465,0.409-0.697
			c1.606-2.78,3.211-5.562,4.817-8.342c3.958-6.855,7.917-13.711,11.876-20.566c2.268-3.927,4.535-7.854,6.802-11.779
			c0.135-0.233,0.271-0.467,0.414-0.695c0.142-0.229,0.268-0.266,0.485-0.145c0.343,0.189,0.682,0.387,1.022,0.582
			c4.99,2.875,9.979,5.75,14.969,8.625c0.17,0.098,0.339,0.196,0.511,0.291c0.301,0.164,0.395,0.136,0.586-0.18
			c0.076-0.126,0.148-0.253,0.222-0.381c1.214-2.101,2.429-4.201,3.642-6.303c0.184-0.318,0.362-0.64,0.541-0.962
			c0.068-0.123,0.042-0.25-0.066-0.318c-0.165-0.106-0.332-0.209-0.501-0.307c-4.859-2.807-9.72-5.612-14.579-8.419
			c-0.509-0.295-1.02-0.588-1.525-0.889c-0.276-0.164-0.299-0.259-0.151-0.534c0.093-0.173,0.191-0.343,0.29-0.512
			c3.198-5.54,6.396-11.08,9.594-16.62c4.644-8.045,9.289-16.09,13.933-24.134c0.147-0.255,0.297-0.508,0.439-0.766
			c0.143-0.259,0.082-0.375-0.192-0.382c-0.245-0.006-0.49-0.004-0.736-0.004C137.266,74.933,129.42,74.933,121.575,74.933z"/>
		<path fill-rule="evenodd" clip-rule="evenodd" fill="#3B98D4" d="M92.122,100.662c-0.248-0.136-0.465-0.247-0.676-0.369
			c-2.397-1.383-4.794-2.768-7.192-4.152c-5.877-3.393-11.754-6.786-17.631-10.179c-0.615-0.355-1.23-0.71-1.844-1.069
			c-0.104-0.062-0.199-0.138-0.296-0.212c-0.015-0.012-0.026-0.05-0.019-0.067c0.015-0.043,0.038-0.109,0.065-0.114
			c0.167-0.026,0.337-0.051,0.507-0.052c1.544-0.006,3.088-0.009,4.632-0.009c7.5,0,15,0,22.5,0c6.667,0.001,13.333,0.003,20,0.003
			c2.279,0.001,4.559,0,6.838,0.003c0.243,0,0.492-0.038,0.727,0.055c0.034,0.015,0.053,0.074,0.069,0.117
			c0.007,0.018-0.005,0.051-0.02,0.068c-0.03,0.037-0.062,0.076-0.102,0.104c-0.102,0.067-0.206,0.131-0.312,0.192
			c-5.41,3.123-10.821,6.247-16.23,9.369c-3.353,1.936-6.704,3.871-10.057,5.806C92.786,100.326,92.497,100.512,92.122,100.662z"/>
		<path fill-rule="evenodd" clip-rule="evenodd" fill="#3B98D4" d="M87.402,125.044c0,4.999,0,9.998-0.001,14.998
			c0,0.268-0.02,0.536-0.032,0.805c-0.002,0.059-0.039,0.095-0.097,0.093c-0.045-0.002-0.109-0.006-0.131-0.034
			c-0.091-0.115-0.176-0.235-0.25-0.361c-0.346-0.592-0.687-1.188-1.03-1.781c-4.545-7.871-9.09-15.742-13.634-23.613
			c-4.104-7.107-8.207-14.214-12.31-21.322c-0.012-0.021-0.026-0.041-0.038-0.063c-0.342-0.596-0.402-0.761-0.295-0.774
			c0.297-0.039,0.491,0.186,0.714,0.313c8.106,4.674,16.208,9.354,24.312,14.032c0.7,0.404,1.403,0.805,2.103,1.209
			c0.169,0.098,0.337,0.2,0.5,0.309c0.106,0.071,0.166,0.184,0.172,0.311c0.011,0.22,0.017,0.441,0.017,0.661
			c0.002,1.396,0.003,2.794,0.003,4.191c0,3.676,0,7.352,0,11.027C87.404,125.044,87.403,125.044,87.402,125.044z"/>
		<path fill-rule="evenodd" clip-rule="evenodd" fill="#3B98D4" d="M96.905,124.966c0-4.977-0.004-9.952,0.003-14.927
			c0.002-1.305-0.158-1.013,0.938-1.646c8.591-4.966,17.185-9.924,25.779-14.883c0.297-0.171,0.599-0.333,0.902-0.494
			c0.036-0.018,0.091,0,0.137,0.003c0.052,0.005,0.072,0.116,0.036,0.194c-0.031,0.066-0.058,0.136-0.093,0.2
			c-0.083,0.149-0.169,0.298-0.255,0.447c-1.347,2.335-2.692,4.67-4.04,7.004c-2.67,4.627-5.342,9.252-8.014,13.877
			c-3.431,5.941-6.862,11.882-10.293,17.823c-1.52,2.631-3.038,5.263-4.558,7.894c-0.097,0.168-0.163,0.362-0.345,0.463
			c-0.033,0.019-0.102,0.01-0.13-0.016c-0.032-0.027-0.05-0.086-0.052-0.132c-0.009-0.245-0.016-0.49-0.016-0.734
			C96.905,135.015,96.905,129.99,96.905,124.966z"/>
	</g>
</g>
</svg>
