<?xml version="1.0" encoding="utf-8"?>
<!-- Generator: Adobe Illustrator 18.0.0, SVG Export Plug-In . SVG Version: 6.00 Build 0)  -->
<!DOCTYPE svg PUBLIC "-//W3C//DTD SVG 1.1//EN" "http://www.w3.org/Graphics/SVG/1.1/DTD/svg11.dtd">
<svg version="1.1" id="Layer_1" xmlns="http://www.w3.org/2000/svg" xmlns:xlink="http://www.w3.org/1999/xlink" x="0px" y="0px"
	 viewBox="0 0 460 822" enable-background="new 0 0 460 822" xml:space="preserve">
<g>
	<path fill="#0F6FDB" d="M122.6,713.4L15,613.2l0-220.8l0-220.8h3l0.3-20c0.4-26.2,0.3-24.9,2.4-25.1c0.9-0.1,1.7-0.6,1.7-1
		c0-0.5,0.8-1,1.7-1.2c1.7-0.4,3.2-2.6,3.2-4.6c0-0.7,0.6-1,2-1.1c1.1,0,2.4-0.1,2.9-0.2c0.5-0.1,2.1-0.1,3.5,0
		c2.2,0.1,2.6,0.3,2.6,1.3c0,0.7,0.5,1.8,1.2,2.4c0.8,0.8,0.9,1.3,0.5,1.4c-0.4,0.1,0.2,0.5,1.3,0.7c1.1,0.2,2,0.8,2,1.3
		c0,0.5,0.6,0.9,1.5,0.9c0.8,0,1.6,0.2,1.8,0.5c0.2,0.3,0.5,3.2,0.7,6.6c0.2,3.3,0.5,6.3,0.7,6.5c0.5,0.8,3.8,0.5,4-0.3
		c0.2-0.6,0.4-0.6,1.1,0c0.4,0.4,1.8,0.8,3.1,0.8h2.3l0-21.1c0-18.4-0.1-21.2-0.9-22c-0.5-0.5-1.5-1-2.1-1c-1.4,0-1.6-0.8-2.2-6.9
		c-0.4-4.1-0.3-4.7,0.6-4.7c1.1,0,2.4-3.9,2.3-7.3c0-2.7,1.4-5,2.7-4.5c0.8,0.3,0.9-0.5,0.9-6.3c-0.1-8.6-0.1-8.3,0.7-8
		c0.5,0.2,0.7,1.9,0.6,5.7c-0.2,6.9,0.2,8.6,2.2,9.1c1.4,0.4,1.5,0.6,1.2,2.8c-0.2,1.3-0.1,2.4,0.2,2.4c0.3,0,0.6,1.3,0.8,2.9
		c0.2,1.9,0.7,3.2,1.5,3.7c1,0.7,1.1,1.2,0.7,5.1c-0.5,4.9-0.8,5.5-2.3,5.5c-0.6,0-1.5,0.6-2.1,1.2c-0.9,1.1-1.1,2.6-1,11.5
		c0.1,11.7,1.5,33.1,2.3,33.9c0.3,0.3,1.2-1.2,2-3.3l1.5-3.8l3.8-0.2l3.8-0.2v-8.3l3.8,0.3c2.7,0.2,3.9,0,4.3-0.6
		c0.3-0.4,0.5-9.7,0.5-20.6c0-19.3,0-19.8,1.2-20.1c1.1-0.3,1.2-0.8,1.2-4.8c0-3.9,0.1-4.5,1.2-4.9c1-0.3,1.2-0.9,1.2-3.4v-3
		l2.6-0.1c5.3-0.3,6.3-0.3,7.2-0.7c0.5-0.2,2.2-0.3,3.7-0.3c1.5,0,3.9-0.1,5.4-0.3c1.4-0.1,2.8,0,3,0.3c0.2,0.3,1.6,0.5,3.2,0.4
		l2.8-0.2l0.3,3.1c0.2,2.5,0.5,3.1,1.5,3.2c2.7,0.4,2.8,0.6,2.8,5.3c0,3.7,0.2,4.6,0.9,4.6c0.8,0,0.9,2.9,0.9,22.6
		c0,19.3,0.1,22.6,0.9,22.6c0.5,0,1-0.2,1.2-0.5c0.2-0.3,0.4-8.9,0.4-19.3l0.1-18.8l1.9-0.3c4.6-0.7,10.3-1.2,16-1.2l6.1-0.1
		l0.2-2.3c0.2-2.5,1.6-2.8,1.7-0.3c0,0.8,0.1,1.8,0.2,2.2c0.1,1,3.8,1,3.8,0.1c0-0.8,3.7-0.2,4.3,0.6c0.2,0.3,0.9,0.6,1.5,0.8
		c1.4,0.3,2.1,1.8,0.7,1.8c-0.8,0-1,1.3-1,10.7c0,10,0.1,10.7,1.1,10.2c4.8-2.5,20.5-8.9,28.6-11.6c15.6-5.3,28.8-8.3,46.5-10.6
		c15-2,40.1-2,55.1,0c11.8,1.6,21.9,3.5,32.1,6.3c8.4,2.3,25.2,8.1,31.5,10.9c0.7,0.3,6.5,2.9,12.9,5.9
		c17.2,7.9,29.8,13.2,37.2,15.8l6.6,2.3v6c0,6,0,6,1.5,6c1.7,0,2.2-1.7,2.2-7.8c0-2.9,0.2-4,0.9-4.3c0.7-0.3,0.9-1.3,0.9-3.6
		c0-2.3,0.3-3.3,0.9-3.6c0.5-0.2,0.9-0.7,0.8-1.1c-0.1-0.6,1.3-0.8,5.6-1c5.3-0.2,5.7-0.1,6,1.1c0.2,0.7,0.6,1.2,0.9,1.2
		c0.3,0,0.5,1.5,0.5,3.4c0,2.4,0.2,3.4,0.8,3.4c1.1,0,1.2,1.3,3,32.7c0.1,2,0.4,2.5,1.7,2.8c0.8,0.2,1.5,0.7,1.6,1.1
		c0,0.4,0.1,1,0.2,1.3c0,0.3,1.2,0.7,2.5,1l2.4,0.4l0,220.8l0,220.8L409,646.9c-63.7,59.2-173.9,161.9-176.4,164.3l-2.4,2.4
		L122.6,713.4z M275.2,737.8c24.4-22.7,67.1-62.5,94.9-88.4l50.6-47.2l0-202.8l0-202.8H39.5v405.5l95,88.6
		c52.3,48.7,95.3,88.5,95.7,88.4C230.6,779.2,250.9,760.5,275.2,737.8L275.2,737.8z M218.9,717.7l-11.1-10.2l0-26.2l0-26.2H184
		l-0.3,29.7l-36-33.5l-36-33.5v-83.2h69.8l-0.2,17.6l-0.2,17.6l-30.3,0.3v23.9h56.9V450.1h-21.4v-23.9h21.4v-19.6H187l-0.2-5.5
		l-0.2-5.5L131,353.7c-30.6-23.1-56.9-43-58.3-44.2l-2.6-2.1V231l60.7,0l60.8,0l19-15c10.4-8.2,19.2-15,19.6-15
		c0.3,0,9.1,6.7,19.6,15l19,15l60.6,0.2l60.6,0.2l0.2,38.1l0.2,38.1l-2.9,2.3c-1.6,1.3-27.9,21.2-58.5,44.2l-55.5,41.9v10.7h-20.8
		v19.6h20.8v23.9h-20.8l0,128.7l0,128.7l-8.6,8c-4.7,4.4-9.8,9-11.2,10.3L230,728L218.9,717.7L218.9,717.7z M210.7,351.6l19.4-5.5
		l19.8,5.6c18.2,5.1,20,5.5,21.3,4.7c0.8-0.5,20.4-15.2,43.6-32.7l42.2-31.8l0-13.9l0-13.9h-88l-19.2,20.1
		c-10.5,11.1-19.5,20.1-19.8,20c-0.3-0.1-9.3-9.1-19.8-20.1l-19.2-20h-88l0,13.9l0,13.9l43.2,32.6c23.8,17.9,43.6,32.6,44,32.6
		C190.9,357.1,200,354.6,210.7,351.6L210.7,351.6z M251.7,253.1c2.7-2.9,4.4-5.3,4.1-5.5c-0.3-0.2-6.2-4.8-12.9-10.1
		c-6.8-5.3-12.5-9.7-12.7-9.7c-0.6,0-26,19.9-26,20.4c0,0.2,5.8,6.5,13,14l13,13.6l8.4-8.8C243.2,262.2,249.1,255.9,251.7,253.1
		L251.7,253.1z M294.6,617.9c-5.8-0.1-7.2-0.3-7.2-1.1c0-0.8,6.5-0.9,50.8-0.9c44.8,0,50.8,0.1,50.8,0.9c0,0.8-1.2,0.9-7.2,0.9
		c-4,0-23.6,0.1-43.6,0.2C318.2,618,298.5,618,294.6,617.9L294.6,617.9z M325.7,603.4c-1.3-1.3-1.3-11.6-0.1-14.7
		c2-4.9,8.9-5.1,11.1-0.4l1.1,2.3l2.2-2.1c2.4-2.3,6.5-4.4,7.7-3.9c1,0.4,1.5,2.3,0.8,3.4c-0.3,0.5-2.4,2.1-4.8,3.4
		c-3.2,1.9-4.4,3-4.9,4.5c-1.2,3.5-1.1,3.6,4.2,3.6c4,0,5,0.2,5.4,1.1c0.6,1.2,0.3,2.7-0.8,3.4c-0.4,0.2-5.3,0.5-10.9,0.5
		C328.4,604.3,326.5,604.2,325.7,603.4L325.7,603.4z M335,595.5c-0.3-4.3-1.1-5.8-3.1-5.8c-2.5,0-3.5,1.7-3.5,5.9v3.9h6.9L335,595.5
		z M364.7,603.7c-1.6-0.6-2.2-2.7-1.2-3.9c0.4-0.5,4.1-3.2,8.4-6l7.6-5.1l-7.6-0.2c-6.2-0.1-7.8-0.4-8.4-1.2
		c-0.5-0.7-0.6-1.3-0.1-2.1c0.6-1,1.5-1.1,11.5-1.1c6,0,11.2,0.2,11.5,0.5c0.9,0.6,1.2,2,0.6,3.5c-0.2,0.7-3.9,3.5-8.2,6.3l-7.8,5
		l7.5,0c6,0,7.6,0.2,8.4,1c1.3,1.3,1.2,1.9-0.4,3c-1.1,0.8-3.2,0.9-10.9,0.9C370.3,604.3,365.4,604,364.7,603.7L364.7,603.7z
		 M326.6,580c-1.6-0.6-1.8-1.6-1.8-9.1c0-5.9,0.2-7.6,0.9-8.2c0.7-0.6,1.1-0.6,1.8,0c0.7,0.6,0.9,2.2,0.9,6.8v6h6.1v-5.8
		c0-4.9,0.2-5.9,1-6.2c1.8-0.7,2.7,1.5,2.7,7v5.1h6.7l0.2-6.6c0.2-6.6,0.2-6.6,1.7-6.6h1.5l0.2,8.1c0.1,6.7,0,8.2-0.8,9
		c-0.8,0.8-2.6,1-10.6,0.9C331.8,580.4,327.1,580.2,326.6,580L326.6,580z M379,579.4c-1-1-0.2-2.8,2-4.2c3.4-2.1,4.1-6,1.5-8.5
		c-2.4-2.4-4.4-0.7-6.3,5.6c-1.5,5.1-3.3,6.9-6.7,6.9c-4.1,0-6.3-3-6.4-8.6c-0.1-5.5,3.2-9.6,6.5-8.4c1,0.4,1.4,3.5,0.5,3.5
		c-0.3,0-1.3,0.7-2.1,1.5c-1.1,1.1-1.6,2.1-1.6,3.6c0,2,1.5,4.1,2.9,4.1c1.2,0,2.6-2.2,3.3-5.2c1.6-6.6,4.5-9.4,8.7-8.6
		c4.4,0.8,7.1,6.4,5.9,12c-0.7,3.1-1.4,4.2-3.6,5.7C382,579.9,379.7,580.2,379,579.4L379,579.4z M340.4,558c-1-1-0.2-2.8,2-4.2
		c3.4-2.1,4.1-6,1.5-8.5c-2.4-2.4-4.4-0.7-6.3,5.6c-1.5,5.1-3.3,6.9-6.7,6.9c-4.1,0-6.3-3-6.4-8.6c-0.1-5.5,3.2-9.6,6.5-8.4
		c1,0.4,1.4,3.5,0.5,3.5c-0.3,0-1.3,0.7-2.1,1.5c-1.1,1.1-1.6,2.1-1.6,3.6c0,2,1.5,4.1,2.9,4.1c1.2,0,2.6-2.2,3.3-5.2
		c1.6-6.6,4.5-9.4,8.7-8.6c4.4,0.8,7.1,6.4,5.9,12c-0.7,3.1-1.4,4.2-3.6,5.7C343.4,558.4,341.2,558.8,340.4,558L340.4,558z
		 M363.3,557.3c-1.1-2.1,0.5-3.1,8.4-4.8c4.1-0.9,7.5-1.8,7.5-2c0-0.2-3.1-1.1-7-2.1c-7.9-2-9.1-2.7-9.1-4.9c0-2.2,1.2-2.9,8.8-4.9
		c3.7-1,6.8-1.9,7-2.2c0.1-0.2-3.1-1.2-7.2-2.1c-7.8-1.7-9.5-2.7-8.3-4.8c0.8-1.5,0.9-1.5,11.4,1c10.6,2.5,12.2,3.1,12.5,4.5
		c0.7,3,0.1,3.4-10.5,6.2c-3.9,1-7.1,2-7.2,2.1c-0.1,0.1,2.8,0.9,6.4,1.9c8.7,2.3,11,3.2,11.4,4.6c0.6,2.5-1.4,3.5-11.6,6.1
		c-5.5,1.4-10.3,2.5-10.8,2.5C364.3,558.4,363.7,557.9,363.3,557.3L363.3,557.3z M324.8,534.1c-0.4-0.7-0.4-1.5,0-2.1
		c0.5-0.9,1.8-1.1,11.9-1.1c10,0,11.3,0.1,11.9,1.1c0.4,0.7,0.4,1.4,0,2.1c-0.5,1-1.7,1.1-11.9,1.1
		C326.5,535.2,325.3,535.1,324.8,534.1L324.8,534.1z M340.4,525.6c-1-1-0.2-2.8,2-4.2c3.4-2.1,4.1-6,1.5-8.5
		c-2.4-2.4-4.4-0.7-6.3,5.6c-1.5,5.1-3.3,6.9-6.7,6.9c-4.1,0-6.3-3-6.4-8.6c-0.1-5.5,3.2-9.6,6.5-8.4c1,0.4,1.4,3.5,0.5,3.5
		c-0.3,0-1.3,0.7-2.1,1.5c-1.1,1.1-1.6,2.1-1.6,3.6c0,2,1.5,4.1,2.9,4.1c1.2,0,2.6-2.2,3.3-5.2c1.6-6.6,4.5-9.4,8.7-8.6
		c4.4,0.8,7.1,6.4,5.9,12c-0.7,3.1-1.4,4.2-3.6,5.7C343.4,526,341.2,526.3,340.4,525.6L340.4,525.6z M325.1,504.8
		c-0.2-0.2-0.4-4.5-0.4-9.5c0-8,0.1-9.1,1.1-9.6c2-1,2.6-0.2,2.6,3.6v3.6h9.4c7.8,0,9.6,0.2,10.4,1c0.5,0.5,1,1.2,1,1.5
		c0,0.3-0.4,1-1,1.5c-0.8,0.8-2.6,1-10.4,1h-9.4v3.7c0,3.4-0.1,3.7-1.4,3.7C326.2,505.2,325.3,505,325.1,504.8L325.1,504.8z
		 M335.1,479.8c-9.7-4-11.3-5.1-10.6-7.7c0.4-1.4,1.6-2.1,10-5.5c13.7-5.5,12-5,13.4-3.7c1.6,1.6,1,2.8-2.2,4.1l-2.7,1.1v5l0,5
		l2.1,0.7c3,1,4.1,2.2,3.3,3.7C347.6,484.4,345.4,484,335.1,479.8L335.1,479.8z M339.4,473c0-3.9,0.5-3.8-6.4-1.2l-3.6,1.3l4.2,1.6
		c2.3,0.9,4.6,1.6,5,1.6C339.2,476.4,339.4,475.3,339.4,473L339.4,473z M326.2,457.4c-1.6-0.6-2.2-2.7-1.2-3.9
		c0.4-0.5,4.1-3.2,8.4-6l7.7-5.1l-7.7-0.2c-6.2-0.1-7.8-0.4-8.4-1.2c-0.5-0.7-0.6-1.3-0.1-2.1c0.6-1,1.5-1.1,11.5-1.1
		c6,0,11.2,0.2,11.5,0.5c0.9,0.6,1.2,2,0.6,3.5c-0.2,0.7-3.9,3.5-8.2,6.3l-7.8,5h7.5c6,0,7.6,0.2,8.4,1c1.3,1.3,1.2,1.9-0.4,3
		c-1.1,0.8-3.2,0.9-10.9,0.9C331.7,458,326.9,457.7,326.2,457.4L326.2,457.4z M332,433c-4.6-1.5-7.5-5.6-7.4-10.8
		c0-5.2,3.4-9.8,6.8-9.4c2.5,0.3,2.3,2.1-0.5,4.7c-2.1,1.9-2.5,2.7-2.5,4.6c0,1.3,0.3,2.8,0.6,3.5c1.5,2.7,9.2,4,12.8,2.1
		c2.2-1.2,3-2.6,3-5.5c0-2.2-1.4-4-4.9-6.4c-1.9-1.3-1.1-3.1,1.5-3.1c4,0,7.2,4.2,7.2,9.5c0,6.9-3.9,10.9-11.1,11.1
		C335.4,433.5,332.9,433.3,332,433L332,433z M326.6,408c-1.6-0.6-1.8-1.6-1.8-9.1c0-5.9,0.2-7.6,0.9-8.2c0.7-0.6,1.1-0.6,1.8,0
		c0.7,0.6,0.9,2.2,0.9,6.8v6h6.1v-5.8c0-4.9,0.2-5.9,1-6.2c1.8-0.7,2.7,1.5,2.7,7v5.1h6.7l0.2-6.6c0.2-6.6,0.2-6.6,1.7-6.6h1.5
		l0.2,8.1c0.1,6.7,0,8.2-0.8,9c-0.8,0.8-2.6,1-10.6,0.9C331.8,408.4,327.1,408.2,326.6,408L326.6,408z M215.2,170.4
		c0-0.8,0.4-1.2,1.1-1.1c1.1,0.1,18.1-10.1,18.9-11.3c0.2-0.4,0.6-1.5,0.8-2.5l0.4-1.9l4.9,4.7c4.8,4.7,7,5.8,7,3.7
		c0-1-6.7-8-11.8-12.3l-2.3-1.9h-72.8v23.9h26.9C214.5,171.6,215.2,171.6,215.2,170.4L215.2,170.4z M340.9,170.1
		c4.3-1.6,10.7-5.2,10.7-6.1c0-0.3-0.2-0.4-0.5-0.3c-0.3,0.1-2.9,1.4-6,3l-5.5,2.8l-34.6,0.4l-0.6-1.6c-0.6-1.5-0.7-1.6-7.2-1.6
		c-4,0-6.9,0.3-7.3,0.7c-0.5,0.5-0.8,0.5-1.1,0c-0.3-0.4-3.1-0.7-7.7-0.7c-7.2,0-7.3,0-7.9,1.5l-0.6,1.5h-23.5
		c-12.9,0-23.7,0.2-23.9,0.5c-0.2,0.3-0.1,0.7,0.1,0.9c0.2,0.2,25.4,0.4,56,0.4h55.6L340.9,170.1z M409.2,171.1
		c0-1.3-9.9-9.8-20.7-17.8l-7.5-5.6h-34.3l-0.9,2.2c-0.5,1.2-0.8,2.4-0.6,2.7c0.2,0.3,2.1,1.1,4.3,1.9c4,1.3,4,1.3,3.6,3.3
		c-0.3,1.5-0.1,2.2,0.9,3.1c0.7,0.6,1.3,1.5,1.3,1.9c0,1,3.2,2.9,7.3,4.2c1.8,0.6,4.1,1.9,5.2,2.8l1.9,1.7l19.7,0
		C400.3,171.6,409.2,171.4,409.2,171.1L409.2,171.1z M415.5,163.8c0.2-2.3,0.4-6.8,0.4-10.1c0-6,0-6-1.5-6h-1.5v10.1
		c0,9.4,0.1,10.1,1.1,10.1C414.9,167.9,415.2,167.3,415.5,163.8L415.5,163.8z M410.3,157.4l-0.2-9.3l-2.5-0.2l-2.5-0.2l-2.2,4.8
		c-1.2,2.6-2.3,5.1-2.4,5.5c-0.2,0.7,8.4,8.6,9.5,8.7C410.2,166.7,410.4,162.5,410.3,157.4L410.3,157.4z M256.8,161.8
		c1.9-0.8,2.8-1.5,2.8-2.3c0-0.9-0.5-1.2-3.1-1.3c-3.4-0.2-4.2,0.3-4.9,3.1c-0.4,1.5-0.3,1.7,1,1.6
		C253.4,163,255.3,162.5,256.8,161.8L256.8,161.8z M270.2,162.4c0.8-0.5,0.8-1,0.1-3.5c-1.3-4.7-3-8.1-4.1-8.1
		c-0.6,0-1.7,1.6-3.1,4.6c-2.2,4.8-2.6,6.8-1.3,7.3C263.2,163.2,269.3,163,270.2,162.4L270.2,162.4z M312.5,160.7
		c0-0.9,0.2-1.2,0.3-0.7c0.4,1.6,1.8,1.8,5.9,0.5c2.1-0.6,4.9-1.3,6.2-1.4c2.8-0.2,3.3-1,1.7-2.9c-1-1.3-1.4-1.3-6-0.9
		c-4,0.4-5.1,0.7-6.4,1.9l-1.5,1.5l0.4-3.3c0.2-1.8,0.6-4.3,0.8-5.6c0.3-1.9,0.2-2.3-0.6-2.3c-1.1,0-1.3,0.7-2.2,6.7
		c-0.9,5.8-0.8,8,0.3,8C312.1,162.4,312.5,161.8,312.5,160.7L312.5,160.7z M307.5,160.5c0.3-1.3-5.1-5.4-7.1-5.4
		c-2.7,0-9,1.9-9.8,2.9c-1.5,1.9,0.2,2.6,6.5,2.7c3.2,0,6.4,0.3,7.1,0.6C305.9,161.9,307.2,161.7,307.5,160.5L307.5,160.5z
		 M288.6,159c0-1.9-1.2-2.4-7.4-3.3c-4.8-0.7-7.4,0-8.2,2.1c-0.8,2.2,0.7,2.7,8.3,2.7h7.3V159z M331.2,155.8c0.2-1.6,0.6-4,0.9-5.2
		c0.4-1.8,0.3-2.4-0.4-2.7c-1.2-0.5-2,0.9-2,3.3c0,1-0.2,3.2-0.4,4.7c-0.3,2.3-0.2,2.8,0.6,2.8C330.5,158.7,330.9,157.9,331.2,155.8
		L331.2,155.8z M335.5,157.4c0.9-0.4,2.8-0.9,4.2-1.1c1.9-0.3,2.5-0.7,2.6-1.8c0.3-1.9-1.1-2.3-5.3-1.4c-3.5,0.7-5,1.9-5,3.9
		C332.1,158.3,333.1,158.4,335.5,157.4L335.5,157.4z M399.4,156.3c0-0.7,0.4-1.4,0.8-1.7c0.8-0.5,3.4-5.2,3.4-6.2
		c0-0.3-2.9-0.6-6.4-0.6c-6.4-0.1-6.4-0.1-6.8,1.5c-0.3,1.2-0.1,1.8,0.8,2.4c0.7,0.5,2.6,2,4.2,3.3
		C398.9,157.8,399.4,158,399.4,156.3L399.4,156.3z M259.5,149l3.7-1.2l-8.3,0l-8.3,0l3.1,1.1C253.7,150.4,255.1,150.4,259.5,149
		L259.5,149z M389,148.6c0-0.5-0.4-0.9-0.9-0.9c-1,0-1.2,0.7-0.5,1.4C388.3,149.9,389,149.6,389,148.6L389,148.6z M171,139.3
		c0.1-2.8,0-5-0.3-5c-0.3,0-2.3,1.1-4.5,2.3c-3.9,2.3-4,2.3-4.2,5.2l-0.2,2.9l4.5-0.2l4.5-0.2L171,139.3z M181.4,136.5
		c0.1-6,0-7.8-0.6-7.8c-0.4,0-2.6,1.1-4.8,2.3l-4,2.3l-0.2,4.8c-0.1,2.6,0,5.2,0.1,5.7c0.2,0.6,1.4,0.8,4.8,0.7l4.4-0.2L181.4,136.5
		z M191.8,134.1c0.1-8,0-10.2-0.6-10.2c-0.4,0-2.6,0.9-4.8,2l-4,2l-0.2,7.6c-0.1,4.2,0,8,0.1,8.4c0.2,0.6,1.5,0.8,4.8,0.6l4.4-0.2
		L191.8,134.1z M202.3,132.2c0-6.9-0.2-12.6-0.5-12.8c-0.3-0.2-2.5,0.6-4.9,1.8l-4.4,2.1v10.3c0,5.7,0.2,10.5,0.4,10.7
		c0.2,0.2,2.4,0.4,4.9,0.4h4.5V132.2z M212.4,130c0-16.4,0.6-15.2-5.8-12.6l-3.4,1.3l-0.2,13l-0.2,13l4.8-0.2l4.8-0.2V130z
		 M222.8,128.4v-15.9l-1.5,0.2c-0.8,0.1-2.9,0.7-4.6,1.2l-3.1,1l-0.2,14.1c-0.1,7.7,0,14.4,0.1,14.9c0.2,0.6,1.5,0.8,4.8,0.6
		l4.4-0.2V128.4z M233.4,127.6c0.1-9.2-0.1-17-0.4-17.3c-0.5-0.5-7.3,0.8-8.6,1.6c-0.4,0.3-0.7,5.7-0.7,16.6v16.2l9.5-0.4
		L233.4,127.6z M243.3,126.3v-18.4l-1.4,0.1c-0.8,0-2.8,0.4-4.4,0.8l-3.1,0.7l-0.2,17.6l-0.2,17.6h9.2V126.3z M254.2,125.5l0.2-18.9
		l-4.4,0.4c-2.4,0.2-4.6,0.6-4.9,0.7c-0.3,0.2-0.5,8.5-0.5,18.6v18.4l4.7-0.2l4.7-0.2L254.2,125.5z M264.1,144.3
		c0-0.2-0.8-1.9-1.8-3.7c-1-1.8-1.8-3.4-1.8-3.5c0-0.1,1-0.4,2.2-0.7l2.2-0.4l-0.2-14.8l-0.2-14.8l-2.7-0.2c-1.5-0.1-3.6,0-4.7,0.2
		l-2,0.4v37.9h4.6C262.1,144.7,264.1,144.5,264.1,144.3L264.1,144.3z M315.6,143.1c0.3-0.9,0.6-3.3,0.5-5.4l0-3.8l-1.1,3.7
		c-1.9,6.6-2,7-1,7C314.5,144.7,315.2,144,315.6,143.1L315.6,143.1z M333.8,141.8c0.5-1.9,1.1-2.9,1.9-3.1c1.1-0.3,1.2-0.9,1.2-8.1
		v-7.8l-3.8-1.6c-2.1-0.9-4.2-1.6-4.6-1.6c-0.6,0-0.8,1.5-0.8,5.6v5.6l2.7-0.4c1.5-0.2,2.9-0.1,3.1,0.2c0.2,0.3-0.4,3.4-1.2,6.9
		c-1.8,7.6-1.8,7.2-0.4,7.2C332.8,144.7,333.3,143.9,333.8,141.8L333.8,141.8z M357.8,138.9V133l-4.3-2.1c-2.3-1.2-4.4-2.1-4.6-2.1
		c-0.2,0-0.3,2-0.3,4.5c0,4.1,0.1,4.6,1.3,4.9l1.3,0.3l-1.3,2.5c-0.7,1.4-1.3,2.8-1.3,3.1c0,0.4,1.8,0.6,4.6,0.6h4.6V138.9z
		 M368.2,142c0-2.6,0-2.7-4.3-5.2c-2.3-1.4-4.4-2.5-4.6-2.5c-0.2,0-0.3,2.3-0.3,5.2v5.2h9.2V142z M375,143.9
		c-0.4-0.4-1.8-1.4-3.1-2.2l-2.5-1.4v4.4h3.1C375,144.7,375.5,144.5,375,143.9L375,143.9z M389,136.9c0-9,0.3-9-5.4,0
		c-4.5,7.2-4.4,7.8,1.5,7.8h3.9V136.9z M395.5,138.1c2-3.6,3.6-6.8,3.6-7.1c0-0.4-7.9-4.1-8.7-4.1c-0.1,0-0.2,4-0.2,8.9
		c0,7,0.2,8.9,0.8,8.9C391.5,144.7,393.5,141.7,395.5,138.1L395.5,138.1z M407.7,139.9c1.2-2.6,2.1-4.7,2-4.8c-0.1-0.1-2.1-1-4.3-2
		c-4.2-1.9-5.3-1.9-5.3-0.3c0,0.5-0.3,0.9-0.6,0.9c-0.5,0-6.2,9.9-6.2,10.7c0,0.2,2.8,0.3,6.1,0.3l6.1,0L407.7,139.9z M410.3,141.1
		c0.3-4.9-0.4-4.3-3.5,3.1c-0.1,0.3,0.6,0.4,1.5,0.3C410,144.4,410.1,144.2,410.3,141.1L410.3,141.1z M426.9,142.2
		c0-1.4-0.3-1.8-1.2-1.8c-1,0-1.2,0.4-1.2,1.8c0,1.4,0.3,1.8,1.2,1.8C426.7,144,426.9,143.6,426.9,142.2L426.9,142.2z M378.6,133.3
		c0-4.9-0.1-8.9-0.3-8.9c-0.7,0-8.9,11.8-8.5,12.3c0.8,0.8,7.8,5.4,8.3,5.4C378.4,142.2,378.6,138.2,378.6,133.3L378.6,133.3z
		 M288,140.4c0-0.3,1.7-2.4,3.7-4.8l3.7-4.4v-21.9l-3.5-0.7c-6.3-1.3-5.7-3-5.7,16.1c0,14.7,0.1,16.8,0.9,16.5
		C287.6,141,288,140.7,288,140.4L288,140.4z M284.8,107.6c-0.1-0.1-2.2-0.3-4.6-0.6l-4.4-0.4v30.6l2.9,1c1.6,0.5,3.6,1.4,4.4,1.8
		l1.5,0.8l0.2-16.6C284.9,115.2,284.9,107.7,284.8,107.6L284.8,107.6z M383.8,134.7c1.9-3.1,3.9-6.3,4.4-7c0.9-1.3,0.7-1.4-3.2-3.2
		c-2.3-1-4.4-1.9-4.6-1.9c-0.3,0-0.5,4-0.5,8.9c0,4.9,0.1,8.9,0.2,8.9C380.2,140.4,381.9,137.8,383.8,134.7L383.8,134.7z
		 M125.8,134.5c0-2.2-0.5-2.6-1.7-1.3c-0.8,0.8-1,3.7-0.3,4.4C124.6,138.3,125.8,136.5,125.8,134.5L125.8,134.5z M345.9,137.3h2.1
		v-9.2l-9.8-4.9v14.9l2.8-0.4C342.6,137.5,344.8,137.3,345.9,137.3L345.9,137.3z M275.1,121.8v-14.9l-1.4-0.4
		c-0.8-0.2-3-0.4-4.9-0.4l-3.5,0V136l2.9,0.2c1.6,0.1,3.8,0.3,4.9,0.3l2,0.1V121.8z M166.8,132.7c2.2-1.3,4.1-2.4,4.2-2.5
		c0.2-0.1-6.1-8.3-8.3-10.6c-0.7-0.8-0.8,0.5-0.8,7.5c0,4.6,0.2,8.3,0.5,8.2C162.6,135.2,164.6,134,166.8,132.7L166.8,132.7z
		 M322.1,132.7c1.6-0.6,3.3-1.1,3.7-1.3c0.6-0.2,0.8-2,0.8-6.6v-6.4l-9.2-3.1v2.1c0,2.1,0.1,2.1,1.8,1.7c1.1-0.2,1.8-0.2,1.8,0.2
		c0,0.3-0.8,2.9-1.8,5.6c-2,5.5-2.6,11.2-0.9,9.6C318.8,134.2,320.5,133.3,322.1,132.7L322.1,132.7z M368.2,127.2
		c0-4.5-0.1-8.3-0.3-8.3c-0.6,0-9,11.1-8.7,11.4c0.6,0.6,8,5,8.5,5.1C368,135.5,368.2,131.8,368.2,127.2L368.2,127.2z M374.3,127.9
		c2.4-3.3,4.3-6.1,4.2-6.2c-0.1-0.1-2.2-1.2-4.6-2.4l-4.4-2.2v8.7c0,4.8,0.1,8.6,0.3,8.4C369.8,134.1,371.9,131.2,374.3,127.9
		L374.3,127.9z M301.9,126.7l4.5-3l-0.2-5.8L306,112l-2.4-0.7c-1.3-0.4-3.5-0.9-4.7-1.1l-2.3-0.4v10.2c0,5.6,0.2,10.1,0.5,10
		C297.3,129.8,299.5,128.3,301.9,126.7L301.9,126.7z M177.1,127l4.5-2.3l-4.4-5.3c-2.4-2.9-4.6-5.3-5-5.3c-0.3,0-0.6,3.3-0.6,7.7
		c0,4.2,0.2,7.6,0.5,7.6C172.4,129.3,174.6,128.3,177.1,127L177.1,127z M357.8,121.7c0-4.2-0.1-7.7-0.3-7.7
		c-0.4,0-8.9,10.2-8.9,10.6c0,0.4,7.9,4.6,8.7,4.6C357.6,129.3,357.8,125.9,357.8,121.7L357.8,121.7z M171.1,120.1
		c0-8.4,0.5-8-6-5.1c-2.3,1-3.1,1.7-2.8,2.3c1.1,1.8,7.9,10.1,8.3,10.1C170.9,127.5,171.1,124.2,171.1,120.1L171.1,120.1z
		 M364,122.1l4.1-5.3l-4.1-2c-2.3-1.1-4.3-2-4.6-2c-0.3,0-0.5,3.3-0.5,7.3c0,4,0.2,7.3,0.5,7.3C359.7,127.5,361.8,125.1,364,122.1
		L364,122.1z M187.3,121.9c2.2-1.1,4-2.1,4-2.4c0-0.6-7.9-9.4-8.6-9.7c-0.4-0.1-0.6,2.5-0.6,6.9c0,4.2,0.2,7.1,0.6,7.1
		C183,123.8,185.1,123,187.3,121.9L187.3,121.9z M348,116.8c0-3.9-0.2-7-0.5-7c-0.3,0-2.5,2.3-5,5l-4.4,5l3.9,2
		C348.1,124.9,348,125,348,116.8L348,116.8z M312.3,121.4l3.8-1.4v-5.3l-3.2-0.9c-6.1-1.7-5.6-2-5.8,4.1c-0.1,4.2,0,5.4,0.6,5.1
		C308.1,122.9,310.2,122.2,312.3,121.4L312.3,121.4z M353.1,117.6c2.2-2.6,4.1-5,4.1-5.3c0-0.5-7.2-3.8-8.3-3.8
		c-0.2,0-0.3,3.2-0.3,7.1c0,3.9,0.1,7,0.2,6.9C348.9,122.4,350.8,120.2,353.1,117.6L353.1,117.6z M181.5,115.3
		c0-3.7-0.2-6.7-0.5-6.7c-0.5,0-8.2,3-8.6,3.4c-0.3,0.3,8.1,10.1,8.6,10.1C181.3,122,181.5,119,181.5,115.3L181.5,115.3z
		 M336.9,112.7l0-6.9l-4.6,4.7c-2.5,2.6-4.6,4.8-4.6,5c0,0.2,1.3,0.7,2.9,1.3c1.6,0.5,3.6,1.4,4.4,1.9c0.8,0.5,1.6,0.9,1.7,0.9
		C336.9,119.6,337,116.5,336.9,112.7L336.9,112.7z M197.6,117.4c2.1-0.9,3.9-1.7,4-1.8c0.4-0.3-7.9-9.4-8.6-9.4
		c-0.3,0-0.6,2.9-0.6,6.4c0,4,0.2,6.4,0.6,6.4C193.5,119,195.5,118.2,197.6,117.4L197.6,117.4z M346.7,108.1c0-0.6-6.6-3.3-8.1-3.3
		c-0.3,0-0.5,3-0.5,6.6l0,6.6l4.2-4.6C344.8,110.9,346.7,108.5,346.7,108.1L346.7,108.1z M191.9,110.9v-6.2l-1.7,0.3
		c-0.9,0.2-3,0.9-4.6,1.6l-3,1.3l4.1,4.6c2.3,2.5,4.4,4.6,4.6,4.6C191.7,117.1,191.9,114.3,191.9,110.9L191.9,110.9z M208,113.4
		c2.3-0.7,4.1-1.5,4-1.8c-0.2-0.6-8.5-9.1-8.8-9.1c-0.1,0-0.2,2.8-0.2,6.1c0,3.4,0.2,6.1,0.4,6.1C203.6,114.7,205.7,114.1,208,113.4
		L208,113.4z M326.6,108.9c-0.1-3-0.3-5.6-0.5-5.8c-0.3-0.3-8.1,8-8.1,8.7c0,0.5,6.8,2.9,7.9,2.8
		C326.6,114.4,326.7,113.2,326.6,108.9L326.6,108.9z M202.3,107.3c0-3.4-0.1-6.1-0.2-6.1c-1.4,0-8.3,2.7-8.3,3.2
		c0,0.7,7.3,8.8,8.1,9C202.1,113.4,202.3,110.7,202.3,107.3L202.3,107.3z M336.3,104.4c0-0.3-1.6-1-3.5-1.6
		c-1.9-0.6-3.9-1.2-4.3-1.4c-0.6-0.2-0.8,1.2-0.8,6.1l0,6.3l4.3-4.4C334.4,106.9,336.3,104.7,336.3,104.4L336.3,104.4z M316.1,105.7
		v-5.9l-4.5,4.2c-2.5,2.3-4.3,4.4-4.1,4.6c0.2,0.2,2.1,1,4.3,1.6c2.2,0.7,4,1.2,4.1,1.3C316.1,111.6,316.1,108.9,316.1,105.7
		L316.1,105.7z M218.4,110c2.1-0.5,3.9-1.1,4-1.2c0.3-0.3-8-8.8-8.7-8.8c-0.3,0-0.5,2.5-0.5,5.5c0,3.6,0.2,5.5,0.7,5.5
		C214.4,111,216.4,110.6,218.4,110L218.4,110z M212.7,104.2v-5.6l-2,0.4c-4.1,0.8-6.6,1.7-6.6,2.2c0,0.7,7.3,8.6,8,8.6
		C212.5,109.8,212.7,107.3,212.7,104.2L212.7,104.2z M325.9,101.1c0-0.4-2.8-1.3-6.6-2.1l-2-0.4V110l4.3-4.3
		C324,103.5,325.9,101.3,325.9,101.1L325.9,101.1z M306.4,103c0-3.1-0.2-4.9-0.7-4.9c-0.7,0-8.5,7.3-8.5,8c0,0.5,8,2.3,8.7,2
		C306.1,108,306.4,105.7,306.4,103L306.4,103z M229,107.2c2.1-0.4,3.9-0.9,3.9-1.2c0-0.5-8.2-7.9-8.8-7.9c-0.2,0-0.4,2.2-0.4,4.9
		c0,3.2,0.2,4.9,0.7,4.9C224.8,107.9,226.9,107.6,229,107.2L229,107.2z M223.1,101.8c0-2.7-0.3-5-0.6-5.2c-0.3-0.2-2.4,0.1-4.6,0.7
		l-4.1,1l4.2,4.2c2.3,2.3,4.4,4.2,4.6,4.2C222.9,106.7,223.1,104.5,223.1,101.8L223.1,101.8z M314.9,99.7c0.4-0.5,0.6-1.1,0.5-1.3
		c-0.3-0.3-6.9-2-7.9-2.1c-0.3,0-0.5,2.3-0.5,5.2v5.3l3.6-3.1C312.5,102,314.5,100.2,314.9,99.7L314.9,99.7z M243,104.2
		c0.4-0.4-7.7-7.9-8.5-7.9c-0.4,0-0.5,8.8-0.1,9.3C234.8,105.9,242.5,104.7,243,104.2L243,104.2z M295.2,98.7l-0.2-2.5l-4.2,3.8
		c-2.3,2.1-4,4-3.8,4.2c0.2,0.2,2.1,0.7,4.2,1l3.8,0.6l0.2-2.3C295.3,102.2,295.3,100.1,295.2,98.7L295.2,98.7z M305.1,96.3
		c0-0.5-7.9-1.7-8.3-1.3c-0.2,0.2-0.3,2.5-0.3,5.2v4.9l4.3-4.3C303.2,98.6,305.1,96.5,305.1,96.3L305.1,96.3z M233.5,99.7v-4.6
		l-2.3,0c-1.3,0-3.4,0.2-4.7,0.5l-2.4,0.5l4.3,4.1c2.4,2.2,4.5,4.1,4.7,4.1C233.3,104.3,233.5,102.2,233.5,99.7L233.5,99.7z
		 M253.1,103.2c0.2-0.1-1.7-2.2-4.1-4.7l-4.4-4.4v10l4.1-0.4C250.9,103.6,252.9,103.4,253.1,103.2L253.1,103.2z M284.9,99.7
		c0-2.5-0.1-4.6-0.3-4.6c-0.4,0-7.3,7.3-7.6,8c-0.1,0.3,1.1,0.6,2.8,0.8c1.6,0.1,3.4,0.3,4,0.3C284.8,104.2,284.9,103.7,284.9,99.7
		L284.9,99.7z M263.9,101.7c0.6-0.5,0.8-1.8,0.7-4.8l-0.2-4l-4.6-0.2l-4.6-0.2l4.3,4.3c2.3,2.4,4.1,4.5,3.9,4.7
		c-0.2,0.2-2-1.3-3.9-3.3c-1.9-2.1-3.7-3.7-4-3.7c-0.3,0-0.5,2-0.5,4.4v4.4l4.1-0.4C261.2,102.6,263.4,102.1,263.9,101.7
		L263.9,101.7z M275,98.6c0.1-2.3,0-4.1-0.3-4.1c-0.3,0-2.3,1.8-4.4,3.9l-3.9,3.9l1.8,0.3c1,0.2,2.9,0.2,4.2,0.2l2.4-0.1L275,98.6z
		 M243.3,93.7c-0.4-0.5-7.1,0.3-7.8,0.9c-0.2,0.2,1.4,2,3.5,4l3.9,3.6l0.3-4.1C243.5,96,243.5,94,243.3,93.7L243.3,93.7z
		 M290.7,98.9c2-1.9,3.8-3.7,3.9-3.9c0.2-0.4-1.2-0.7-5.8-1.5l-2.6-0.4v4.6c0,2.6,0.2,4.6,0.4,4.6
		C286.8,102.4,288.6,100.8,290.7,98.9L290.7,98.9z M254.3,97.2v-4.7l-4.1,0.4c-2.3,0.2-4.3,0.6-4.4,0.8c-0.3,0.3,7.9,8.1,8.4,8.1
		C254.3,101.8,254.3,99.7,254.3,97.2L254.3,97.2z M273.9,93.1c0-0.3-1.9-0.5-4.3-0.5h-4.3v9.5l4.3-4.3
		C272,95.5,273.9,93.4,273.9,93.1L273.9,93.1z M282.3,95.8c1.2-1.1,2-2.1,1.9-2.2c-0.1-0.1-2-0.4-4.3-0.6l-4.1-0.4v9.6l2.2-2.1
		C279.2,98.8,281.1,96.9,282.3,95.8L282.3,95.8z M32.4,115.9c0.2-0.3,0.5-0.6,0.6-0.6c0.1,0,0.3,0.3,0.3,0.6s-0.3,0.6-0.6,0.6
		C32.4,116.5,32.2,116.2,32.4,115.9L32.4,115.9z M227.3,86.1c0-0.3-0.1-1.1-0.2-1.8c-0.1-0.8-0.6-1.3-1.5-1.4
		c-1.6-0.2-1.8-0.9-0.4-2c0.6-0.5,0.8-1.3,0.6-2.5c-0.3-1.5-0.2-1.7,1-1.3c1,0.3,1.7-0.1,2.4-1.1l1.1-1.4l0.4,1.4
		c0.4,1.1,0.8,1.3,2.2,1.1c1.8-0.3,2.3,0.6,1.1,1.8c-0.5,0.5-0.3,1,0.6,1.8c1.7,1.4,1.6,1.9-0.1,2.2c-1,0.1-1.5,0.7-1.7,2
		c-0.3,1.6-0.4,1.7-1.1,0.8c-1.1-1.3-1.8-1.3-3.2,0C227.9,86.2,227.4,86.5,227.3,86.1L227.3,86.1z M238,51.8c-0.5-1.7-0.5-2,0.5-2.4
		c0.6-0.2,1.1-0.6,1.1-0.9c0-0.9,0.8-0.7,2.4,0.7c1.2,1,1.3,1.4,0.7,2.1c-0.4,0.5-0.6,1.1-0.4,1.5c0.2,0.3-0.6,0.7-1.7,0.8
		C238.8,53.8,238.6,53.6,238,51.8L238,51.8z M201.7,44.7c0-1.2-0.4-1.8-1.6-2.3c-1.5-0.6-1.6-0.7-0.6-1.8c0.7-0.8,0.9-1.6,0.6-2.8
		c-0.4-1.5-0.3-1.6,1.1-1.2c1.2,0.3,1.7,0.1,2.3-0.9l0.7-1.3l0.9,1.3c0.7,1,1.3,1.2,2.5,0.9c1.1-0.3,1.4-0.2,1.2,0.4
		c-0.2,0.4-0.5,1.3-0.7,1.8c-0.3,0.7,0,1.2,0.9,1.7c1.5,0.8,1.1,1.9-0.6,1.9c-0.9,0-1.2,0.4-1.2,1.9c0,1.8-0.1,1.9-1.1,0.9
		c-0.6-0.6-1.4-1-1.6-1c-0.3,0-1,0.5-1.6,1C201.7,46.2,201.7,46.2,201.7,44.7L201.7,44.7z M250,37.2c0-1.1-0.3-1.5-1.2-1.5
		c-1.6,0-2.1-0.9-0.9-1.9c0.7-0.5,0.9-1.4,0.6-2.6c-0.3-1.6-0.2-1.7,1-1.3c1,0.3,1.6,0,2.4-1l1.1-1.4l0.7,1.4c0.6,1.1,1.1,1.3,2.5,1
		c1.8-0.4,1.8-0.4,1.1,1.2c-0.6,1.3-0.5,1.8,0.3,2.7c1.3,1.5,1.3,1.8-0.4,2.1c-0.9,0.1-1.4,0.7-1.6,1.6c-0.2,1.6-0.7,1.7-1.8,0.6
		c-0.6-0.6-1-0.6-1.9,0C250.2,39.1,250,39,250,37.2L250,37.2z M227.2,16.7c0.3-1-0.1-1.4-1.5-1.9l-1.8-0.7l1.3-1
		c1.1-0.9,1.2-1.2,0.5-2.7c-0.7-1.6-0.7-1.6,1.1-1.2c1.6,0.3,1.9,0.2,2.2-0.9c0.4-1.6,1.2-1.6,2.1,0c0.5,1,1.1,1.2,2.2,0.9
		c1.6-0.4,1.8,0,0.9,1.5c-0.4,0.6-0.2,1.3,0.7,2.2l1.2,1.3l-1.6,0.4c-1.2,0.3-1.6,0.8-1.6,1.9c0,1.7-0.6,1.9-1.7,0.8
		c-0.6-0.6-1-0.6-1.9,0C227.5,18.3,226.9,18.1,227.2,16.7L227.2,16.7z M227.2,16.7"/>
</g>
</svg>
