<?xml version="1.0" encoding="utf-8"?>
<!-- Generator: Adobe Illustrator 16.0.3, SVG Export Plug-In . SVG Version: 6.00 Build 0)  -->
<!DOCTYPE svg PUBLIC "-//W3C//DTD SVG 1.1//EN" "http://www.w3.org/Graphics/SVG/1.1/DTD/svg11.dtd">
<svg version="1.1" id="Ebene_1" xmlns="http://www.w3.org/2000/svg" xmlns:xlink="http://www.w3.org/1999/xlink" x="0px" y="0px"
	 width="489.373px" height="730.236px" viewBox="0 0 489.373 730.236" enable-background="new 0 0 489.373 730.236"
	 xml:space="preserve">
<g id="original">
	<polygon fill="#FFFFFF" points="272.171,0 306.332,27.991 461.623,27.991 461.623,489.539 244.688,691.749 27.752,489.539 
		27.752,27.991 183.039,27.991 217.201,0 0,0 0,502.16 244.688,730.237 489.373,502.16 489.373,0 	"/>
	<path fill="#FFFFFF" d="M295.687,274.847V261.97l137.334-103.79V67.514H290.117L244.688,31.68l-45.433,35.833H56.352v90.667
		l137.334,103.79v12.877h24.75v22.667h-25v28.5h25v169.501h-67.25v-28.5h36v-41.75h-81.947v98.377l85.303,79.512v-35.639h27.896
		v61.641l26.252,24.467l26.25-24.467V326.014h25v-28.5h-25v-22.667H295.687L295.687,274.847z M244.688,63.43l31,24.452l-31,32.507
		l-31.002-32.507L244.688,63.43z M244.688,203.181l-47.246,13.338L95.107,139.181v-32.667h103.666l45.912,48.146l45.914-48.146
		h103.664v32.667l-102.332,77.338L244.688,203.181z"/>
</g>
</svg>
