<?xml version="1.0" encoding="utf-8"?>
<!-- Generator: Adobe Illustrator 18.0.0, SVG Export Plug-In . SVG Version: 6.00 Build 0)  -->
<!DOCTYPE svg PUBLIC "-//W3C//DTD SVG 1.1//EN" "http://www.w3.org/Graphics/SVG/1.1/DTD/svg11.dtd">
<svg version="1.1" id="Layer_1" xmlns="http://www.w3.org/2000/svg" xmlns:xlink="http://www.w3.org/1999/xlink" x="0px" y="0px"
	 viewBox="0 0 436 793.8" enable-background="new 0 0 436 793.8" xml:space="preserve">
<g>
	<g>
		<defs>
			<rect id="SVGID_1_" width="436" height="793.8"/>
		</defs>
		<clipPath id="SVGID_2_">
			<use xlink:href="#SVGID_1_"  overflow="visible"/>
		</clipPath>
		<path clip-path="url(#SVGID_2_)" fill="#0097FD" d="M214.8,791.2c-1.1-0.7-6.4-5.3-11.7-10.4c-5.4-5-52.3-48.8-104.2-97.2
			c-99.7-92.8-97.6-90.9-98.2-94C0.5,588.7,0.4,489.3,0.5,369l0.2-218.8l1.6-1.4l1.7-1.4l0.3-20.3c0.2-11.2,0.4-21.4,0.5-22.8
			l0.2-2.5l1.6-0.2l1.6-0.2l0.3-1.2l0.3-1.2l1.4,0l1.4,0l0.8-1.7c0.4-0.9,0.8-2.2,0.8-2.8c0-0.6,0.3-1.1,0.8-1
			c0.4,0.1,1.5,0.1,2.5,0l1.7-0.1v-4.3c0-2.4,0.2-4.4,0.5-4.6c0.3-0.2,0.4,1.4,0.4,3.5c-0.1,5.1,0.1,5.3,2.8,5.3h2.3l0.4,1.8
			l0.4,1.8l1.4,0.4l1.4,0.4l-1.2,0.5L25.4,99l2,0l2,0v2.5h3.5l0.4,3.8c0.2,2.1,0.4,5.1,0.4,6.7v2.9l1.7,0.4l1.7,0.4l0.7-0.9l0.7-0.9
			l1.2,0.9c0.6,0.5,2.1,0.9,3.2,0.9h2l0-21.1l0-21.1l-1-1.1c-0.6-0.6-1.5-1.1-2.1-1.1c-1.5,0-1.7-0.3-2.1-6.4l-0.4-5.4h2l0.4-2.3
			c0.2-1.3,0.4-2.8,0.4-3.4c0-0.6,0.2-1.1,0.5-1.1H43l-0.6-1.1c-1-1.9,1-4.7,2.9-4l0.9,0.3L46,40.7l-0.2-7.3h1.8l-0.2,5.3
			c-0.1,2.9,0,6.2,0.2,7.3l0.4,1.9h1.2c1.5,0,2.5,2.3,1.6,4l-0.6,1.2l0.7,0.2c0.4,0.1,0.7,1.2,0.7,2.3s0.3,2.2,0.6,2.5
			c0.3,0.2,0.5,0.7,0.2,1c-0.2,0.3,0.2,0.8,0.9,1l1.3,0.3l-0.4,2.9c-0.2,1.6-0.5,3.9-0.7,5.2l-0.3,2.3h-1.2c-0.7,0-1.8,0.6-2.5,1.3
			l-1.3,1.3L48.8,87c0.4,14.5,1.4,28.5,2.2,30l0.5,0.9l2.9-7.6h7.7v-8.7l3.7,0.3l3.7,0.3l0.2-0.8c0.1-0.4,0.4-9.6,0.6-20.5l0.3-19.8
			l2.6-1.7v-8.6l1.2-0.3l1.2-0.3v-5.8l7.3-0.8c4-0.5,7.9-0.8,8.7-0.7c0.8,0.1,1.8-0.1,2.3-0.5l0.8-0.7l0.4,0.6
			c0.2,0.3,0.9,0.4,1.6,0.3c0.7-0.2,1.2,0,1.2,0.4v0.7l3.1-0.4l3.1-0.4v6.3l2,0.5l2,0.5l0.4,9.4l0.9,0.2l0.9,0.2l0,22.7
			c0,12.5,0.2,22.7,0.4,22.7c0.2,0,0.8-0.2,1.2-0.5l0.7-0.5l0.1-19l0.1-19l1.9-0.3c5.4-0.9,15.3-1.6,18.6-1.5l3.7,0.2l0.1-1.2
			c0-0.7,0.1-1.7,0.2-2.4c0.1-1.7,1.6-0.9,1.7,0.9c0,0.8,0.1,1.8,0.2,2.3c0.1,1,2.7,1,3.6,0.1c0.8-0.8,4.5-0.2,4.5,0.7
			c0,0.3,0.5,0.6,1.2,0.6c1.6,0,2.3,1.3,1,2l-1,0.6v10.2c0,5.6,0.2,10.2,0.5,10.2s2.9-1.1,5.9-2.5c53.8-24.9,114.7-28.4,170.8-9.9
			c10.8,3.6,23,8.6,38.3,15.8c11.5,5.4,28,12.3,34.5,14.4l3.5,1.1l0.6,12.2l1.3,0.2l1.3,0.2l0.4-2.9c0.2-1.6,0.4-4.4,0.4-6.2v-3.3
			h1.9v-3.4c0-1.9,0.3-3.4,0.6-3.4c0.3,0,0.6-0.6,0.6-1.2v-1.2h12.3v1.2c0,0.7,0.3,1.2,0.6,1.2c0.3,0,0.6,1.5,0.6,3.4v3.4h0.9
			c1.3,0,1.4,1,2.2,16.7c0.4,7.6,0.8,15.1,1,16.5l0.3,2.6h3v2.5h1.2c0.7,0,1.2,0.3,1.2,0.7c0,0.4,0.6,1.4,1.4,2.2l1.4,1.5l0.2,218.7
			c0.1,120.3,0,219.5-0.2,220.6c-0.5,3.1,0.2,2.4-66.4,64.3c-34.5,32.1-81.4,75.9-104.3,97.2c-22.9,21.4-42.5,39.4-43.5,40
			C218.7,792.7,217.3,792.7,214.8,791.2L214.8,791.2z M231.7,693.7l8.8-8.2V428.2h21v-24.1h-21v-19.8h21v-11l40.3-30.5
			c22.2-16.8,48.4-36.6,58.3-44l18.1-13.6v-76.9l-121.3,0l-19.1-15.1c-10.5-8.3-19.4-15.1-19.8-15.1c-0.3,0-9.2,6.8-19.8,15.1
			l-19.1,15.1l-121.3,0l0,38.4l0,38.4l58.3,44l58.3,44v11h21v19.8h-21v24.1h21V572H138l0.2-11.9l0.2-11.9l30.6-0.3v-35.2H99.2v83.1
			l33.7,31.4c18.5,17.3,34.9,32.5,36.4,33.8l2.7,2.4v-30.3h23.5v52.4l22.5,21l2.5-2.3C221.8,703,226.9,698.2,231.7,693.7
			L231.7,693.7z M134.2,302.1l-43.6-32.9l0-14l0-14l88.6,0.1l19.4,20.4l19.4,20.4l3.8-3.8c2.1-2.1,10.9-11.2,19.5-20.4l15.7-16.6
			l44.3,0l44.3,0l0,14l0,14l-41.3,31.2c-22.7,17.1-42.4,31.9-43.6,32.8l-2.3,1.7l-19.4-5.5c-10.7-3-19.9-5.5-20.5-5.5
			c-0.8,0-33.7,9-39.2,10.7l-1.1,0.4L134.2,302.1z M204.8,239.3l-13.2-13.7l0.9-0.8c0.5-0.5,6.4-5.2,13.1-10.5l12.3-9.6l0.8,0.5
			c1.7,1,25.6,20.1,25.6,20.5c0,0.2-5.9,6.4-13.1,13.9L218,253L204.8,239.3z M371,597.4l7.3,0v-1.9H275.7v1.8l7.3,0.2
			c4,0.1,23.8,0.1,44,0C347.2,597.4,367,597.4,371,597.4L371,597.4z M202.9,146.1v-1.2h1.3c0.7,0,5.3-2.5,10.2-5.6l8.9-5.6l0-1.3
			c0-0.7,0.3-1.7,0.6-2.2l0.6-0.9l4.9,4.8c4.9,4.8,6.9,5.8,6.9,3.6c0-1.1-8.1-9.3-12.6-12.7l-2-1.5l-36.4,0.2l-36.4,0.2l-0.2,11.9
			l-0.2,11.9h54.4V146.1z M329,146c4.4-1.5,9.8-4.4,11-5.9c0.5-0.6,0.6-0.9,0.2-0.7c-0.3,0.2-3.1,1.5-6.2,3l-5.6,2.8l-17.4,0.2
			l-17.4,0.2l-1.2-3.1h-6.2c-3.4,0-6.8,0.3-7.4,0.6l-1.2,0.6l-0.4-0.6c-0.2-0.4-3.5-0.6-7.8-0.6h-7.4l-0.6,1.5l-0.6,1.5l-23.6,0.2
			l-23.6,0.2l-0.3,0.8l-0.3,0.8h111.8L329,146z M398,146.4c0-1.1-9.5-9.3-19.9-17.1l-8.2-6.1h-34.4l-0.8,2c-1.2,2.8-0.7,3.4,3.6,4.7
			l3.8,1.1l0,2.2l0,2.2l2.3,2.9l2.3,2.9l3.7,1l3.7,1l4.6,4.1l19.6,0l19.6,0V146.4z M405,134l0.4-9.6l-0.6-0.6
			c-0.3-0.3-1.1-0.5-1.6-0.3l-1,0.4v19.8h2.3L405,134z M399.7,132.6l-0.2-9.1h-4.9l-2.3,4.6c-1.3,2.5-2.3,5-2.3,5.6c0,1,7.8,7.9,9,8
			l0.8,0L399.7,132.6z M244.6,137.4l3.5-1.3l-0.4-2l-3.2-0.2l-3.2-0.2l-1,1.9C238.4,139.1,239.1,139.4,244.6,137.4L244.6,137.4z
			 M259,137c0-0.6-0.8-3.2-1.7-5.7l-1.7-4.6l-2.1-0.4l-1.9,4c-1,2.2-2.1,4.9-2.3,5.9L249,138h10L259,137z M301.2,134.6
			c0.3-1.7,0.8-4.8,1.1-7c0.7-4.1,0.4-5.1-0.8-3.9c-0.7,0.7-2.3,8.8-2.3,12.4l0,2.1l0.8-0.3C300.4,137.7,300.9,136.3,301.2,134.6
			L301.2,134.6z M296.1,136c0-1.3-5.6-5.3-7.4-5.3c-1.7,0-5.5,0.9-8.3,2l-1.7,0.7l0.4,2.6l6.8,0.3c3.7,0.2,7.6,0.4,8.5,0.5l1.7,0.1
			V136z M308,135.9c1.2-0.5,3.4-0.9,4.9-0.9h2.7l0.3-0.9c0.2-0.5-0.1-1.5-0.6-2.2l-1-1.4l-4.1,0.4c-6,0.6-6.8,0.9-7.8,2.9
			C300.9,136.9,303.4,137.8,308,135.9L308,135.9z M276.6,134.3v-1.5l-3.4-0.7c-1.9-0.4-4.6-0.8-6.1-1l-2.7-0.4l-3.9,3.5l0.8,1l0.8,1
			l7.2-0.2l7.2-0.2V134.3z M320.1,130c0.9-5.3,0.9-6.8,0.1-6.8c-0.9,0-1.6,2.3-2.1,6.9l-0.4,4.2h1.7L320.1,130z M326.8,132.2
			c4.4-1.2,5.3-2,3.6-3.4l-0.9-0.7l-2.7,0.4c-2.9,0.4-4.9,1.3-5.6,2.3c-0.7,1.1-0.5,2.9,0.3,2.7C322,133.5,324.3,132.8,326.8,132.2
			L326.8,132.2z M388.4,124l-0.3-0.8h-7.4l-0.6,1.2c-0.9,1.7-1.1,1.5,3.8,5.3l4.5,3.5l0.2-4.1C388.7,126.7,388.6,124.5,388.4,124
			L388.4,124z M392.4,123.6c-0.3-0.3-1-0.4-1.5-0.2l-1,0.4l0,2.9l0,3l1.5-2.8C392.3,125.4,392.7,123.9,392.4,123.6L392.4,123.6z
			 M246.2,124.9c4.8-1.3,4.1-1.7-3.2-1.7c-7.5,0-7.7,0.1-4,1.5C242,125.8,242.6,125.8,246.2,124.9L246.2,124.9z M377.7,123.7
			c-0.4-0.4-0.9-0.5-1.2-0.3c-0.3,0.3-0.1,0.7,0.4,1c0.5,0.3,1,0.4,1.2,0.3C378.3,124.6,378.1,124.1,377.7,123.7L377.7,123.7z
			 M158.2,115c0-2.6-0.1-4.9-0.3-5c-0.2-0.1-2.3,0.9-4.6,2.2l-4.2,2.5v5.5l4.5-0.2l4.5-0.2L158.2,115z M168.8,112.5
			c0.1-4-0.1-7.6-0.4-7.9c-0.3-0.3-2.4,0.5-4.6,1.8l-4.1,2.3v11.6l4.5-0.2l4.5-0.2L168.8,112.5z M178.8,109.6
			c0-5.8-0.1-10.5-0.3-10.5c-0.2,0-2.3,1-4.6,2.2l-4.3,2.2v7.9c0,4.4,0.2,8.1,0.4,8.3c0.2,0.2,2.3,0.4,4.6,0.4h4.2V109.6z
			 M189.8,107.3l0.2-12.5h-0.9c-0.5,0-2.7,0.8-5,1.8l-4.1,1.8v10.4c0,5.7,0.2,10.6,0.4,10.9c0.2,0.2,2.4,0.4,4.8,0.3l4.3-0.2
			L189.8,107.3z M200.3,105.5l0.2-14.4l-1.1,0c-0.6,0-2.8,0.6-4.8,1.4l-3.7,1.4l-0.2,12.3c-0.1,6.8,0,12.7,0.1,13.1l0.3,0.8l4.5-0.2
			l4.5-0.2L200.3,105.5z M210.3,103.8V87.6l-4.3,1.3l-4.3,1.3v30.1h8.6V103.8z M220.8,102.5V84.9l-1.4,0.3c-0.8,0.2-2.8,0.7-4.5,1.1
			l-3.1,0.8l-0.2,15.7c-0.1,8.7,0,16.1,0.1,16.5l0.3,0.8h8.7V102.5z M231.3,101.5V82.9l-2.3,0.4c-1.3,0.2-3.4,0.7-4.6,1L222,85v17.2
			c0,9.4,0.2,17.3,0.4,17.6c0.2,0.2,2.3,0.4,4.6,0.4h4.2V101.5z M242.1,101V82.2l-4.3,0.2c-2.4,0.1-4.5,0.3-4.8,0.5
			c-0.6,0.4-0.6,36.3,0,36.9c0.2,0.2,2.4,0.4,4.8,0.3l4.4-0.2V101z M252.3,119.6c0-0.3-0.8-1.8-1.9-3.4c-1-1.6-1.9-3.2-1.9-3.5
			s0.8-0.7,1.9-1l1.9-0.4V81.1l-3.2,0.4c-1.8,0.2-3.9,0.4-4.6,0.4l-1.4,0v18.7c0,10.3,0.2,18.9,0.4,19.1
			C244,120.3,252.3,120.2,252.3,119.6L252.3,119.6z M304.2,118.2c0.2-0.8,0.4-3,0.4-4.9l0-3.4l-1.2,3.7c-0.7,2-1.2,4.4-1.2,5.1
			C302.3,120.6,303.6,120.2,304.2,118.2L304.2,118.2z M322.4,117.3c0.4-1.3,1.3-2.8,2-3.3l1.3-0.9v-15l-4.2-1.7
			c-2.3-0.9-4.4-1.7-4.6-1.7c-0.3,0-0.5,2.5-0.5,5.6v5.6l6.4-0.9l-0.4,2.1c-0.2,1.1-0.9,4.4-1.6,7.1c-0.6,2.8-1,5.2-0.8,5.4
			C320.8,120.6,321.7,119.6,322.4,117.3L322.4,117.3z M346.7,114.4v-5.7l-4.1-2.2c-2.3-1.2-4.4-2.3-4.6-2.4
			c-0.3-0.1-0.5,1.8-0.5,4.1v4.3l2.5,1.3l-0.9,1.7c-0.5,0.9-1,2.3-1.3,3.1l-0.4,1.4h9.3L346.7,114.4L346.7,114.4z M357.2,117.5v-2.6
			l-4.5-2.6l-4.5-2.6l-0.2,4.4c-0.1,2.4,0,4.8,0.1,5.2l0.3,0.8h8.7V117.5z M364,119.7c0-0.3-0.6-0.9-1.4-1.3c-0.8-0.5-2-1.3-2.8-1.8
			l-1.4-0.9v4.5h2.8C362.8,120.1,364,119.9,364,119.7L364,119.7z M377.9,119.3c0.2-0.4,0.2-4,0.1-7.9l-0.2-7.1l-4.5,7.1l-4.5,7.1
			l1,0.8c0.6,0.4,2.5,0.8,4.3,0.8h3.3L377.9,119.3z M384.8,113l3.8-6.7l-1-0.6c-0.6-0.3-2.6-1.2-4.6-2l-3.6-1.4v17.9l0.8-0.2
			C380.6,119.9,382.7,116.7,384.8,113L384.8,113z M388.4,119.3c0.2-0.5,0.2-2.9,0.1-5.4l-0.2-4.6l-2.6,4.5c-1.4,2.5-2.6,4.9-2.6,5.4
			v0.9h5L388.4,119.3z M394.6,119.7c0.7-0.5,4.8-8.8,4.5-9.1c-0.1-0.1-1.2-0.6-2.5-1.2c-1.3-0.5-3.3-1.4-4.5-1.9l-2.2-0.9v13.6l2,0
			C393,120.1,394.2,119.9,394.6,119.7L394.6,119.7z M399.7,116.9c0.2-3.6-0.6-3.8-2-0.4c-1.3,3.3-1.3,3.8,0.4,3.6l1.4-0.2
			L399.7,116.9z M416.5,117.4v-1.5H414v3.1h2.5V117.4z M367.7,108.6v-9.1l-0.6,0.6c-1,1.1-8.1,10.8-8.2,11.3c-0.1,0.5,7.3,6,8.3,6.2
			C367.5,117.6,367.7,113.6,367.7,108.6L367.7,108.6z M272.8,83c-0.3-0.2-2.3-0.6-4.6-0.9l-4.2-0.4l0,15.3l0,15.3l4.5,1.9l4.5,1.9
			l0.2-16.3C273.2,90.8,273.1,83.3,272.8,83L272.8,83z M277.6,113.8c1.1-1.4,2.9-3.6,4.1-4.8l2.1-2.2l-0.3-22.1l-1.6-0.4
			c-0.9-0.2-2.9-0.6-4.5-0.9l-2.9-0.4v16.7c0,9.7,0.2,16.7,0.6,16.7C275.4,116.4,276.5,115.2,277.6,113.8L277.6,113.8z M370.2,114.7
			c0-0.3,1.7-3.1,3.7-6.2c2-3.1,3.7-6.1,3.7-6.5c0-0.6-3.4-2.4-7.6-3.9l-1.1-0.4v17.4h0.6C369.9,115.2,370.2,115,370.2,114.7
			L370.2,114.7z M112.7,110.1v-1.8l-1.1,0.2l-1.1,0.2l-0.1,1.8c-0.1,2.4,0.3,3,1.3,2.1C112.3,112.3,112.7,111.1,112.7,110.1
			L112.7,110.1z M333.9,112.7l2.3,0V103l-3.9-1.7c-2.1-0.9-4.2-1.8-4.6-2L327,99v14.5l2.3-0.4C330.6,112.9,332.6,112.7,333.9,112.7
			L333.9,112.7z M262.8,97.1V82l-4-0.4c-2.2-0.2-4.3-0.3-4.6-0.1c-0.4,0.2-0.6,6.4-0.6,15.1v14.8l3.2,0.2c1.8,0.1,3.9,0.3,4.6,0.3
			l1.4,0.1V97.1z M157.8,105.3c0-0.4-6.4-8.9-8.1-10.8c-0.3-0.3-0.5,3.1-0.5,7.8v8.4l4.3-2.5C155.9,106.9,157.8,105.6,157.8,105.3
			L157.8,105.3z M311.2,107.8l4-1.3V94.1l-2.7-1.2c-1.5-0.7-3.6-1.4-4.6-1.6L306,91v3.8l1.9-0.4l1.9-0.4v0.8c0,0.5-0.8,2.9-1.8,5.5
			L306,105v6.2l0.6-1C307,109.6,309,108.5,311.2,107.8L311.2,107.8z M357.2,102.4v-8.5l-0.8,0.9c-2.9,3.2-8.5,10.6-8.2,10.9
			c0.6,0.6,8.1,5,8.6,5.1C357,110.8,357.2,107.1,357.2,102.4L357.2,102.4z M363,103.5c2.2-3,4.1-5.8,4.1-6.2c0-0.6-7.2-4.4-8.3-4.4
			c-0.2,0-0.3,3.6-0.3,8c0,4.4,0.1,8,0.2,8C358.8,109,360.8,106.6,363,103.5L363,103.5z M289.4,102.5c2.1-1.5,4-2.8,4.3-2.8
			c0.3,0,0.5-2.7,0.4-6.3l-0.2-6.3l-2.5-0.7c-1.4-0.4-3.4-0.9-4.5-1.1l-2-0.4v10.2c0,5.6,0.1,10.2,0.3,10.2
			C285.5,105.3,287.3,104.1,289.4,102.5L289.4,102.5z M168.3,99.7c0-0.4-4.3-5.8-8.1-10.1c-0.3-0.3-0.5,2.9-0.5,7.3v7.8l4.3-2.3
			C166.4,101.2,168.3,100,168.3,99.7L168.3,99.7z M346.7,96.8V89l-0.9,0.9c-3.6,3.9-8.6,10.1-8.1,10.3c0.3,0.1,2.3,1.2,4.3,2.3
			c2,1.2,3.9,2.1,4.2,2.2C346.5,104.7,346.7,101.2,346.7,96.8L346.7,96.8z M158.4,95.5c0.1-3.7-0.1-6.9-0.4-7.1
			c-0.3-0.2-2.4,0.6-4.7,1.6l-4.2,1.9l4.2,5.3c2.3,2.9,4.3,5.2,4.5,5.1C158.1,102.4,158.3,99.2,158.4,95.5L158.4,95.5z M352.6,97.7
			c2.2-2.8,4-5.3,4-5.6c0-0.3-7.8-4.1-8.4-4.1c-0.1,0-0.2,3.3-0.2,7.4c0,4.1,0.1,7.4,0.3,7.4C348.4,102.8,350.3,100.5,352.6,97.7
			L352.6,97.7z M174.5,97.2c2.4-1.1,4.3-2.2,4.2-2.4c-0.3-0.8-8.2-9.8-8.7-9.8c-0.3,0-0.5,3.2-0.5,7.1c0,3.9,0.1,7.1,0.3,7.1
			C170,99.1,172.1,98.3,174.5,97.2L174.5,97.2z M336.2,91.9v-7.2l-3.2,3.6c-4.3,4.9-5.6,6.5-5.3,6.8c0.4,0.4,7.5,3.9,8,3.9
			C336,99.1,336.2,95.9,336.2,91.9L336.2,91.9z M300.6,96.7l4.2-1.5V90l-3.6-1c-2-0.6-4.1-1-4.6-1h-1v5.3c0,2.9,0.2,5.2,0.5,5.1
			C296.2,98.3,298.3,97.5,300.6,96.7L300.6,96.7z M342.8,91.7c1.9-2.4,3.4-4.4,3.3-4.5c-0.3-0.2-8-3.4-8.4-3.4
			c-0.1,0-0.2,3.1-0.2,6.9v6.9l0.9-0.7C338.9,96.3,340.8,94,342.8,91.7L342.8,91.7z M168.9,90.5c0-3.4-0.2-6.3-0.5-6.4
			c-0.6-0.3-8.2,2.6-8.2,3.2c0,0.7,7.4,9.3,8.1,9.3C168.7,96.7,168.9,94,168.9,90.5L168.9,90.5z M185,92.5c2.2-0.9,4.1-1.7,4.2-1.8
			c0.3-0.2-8.2-9.5-8.7-9.5c-0.3,0-0.5,2.9-0.5,6.5c0,3.6,0.2,6.5,0.5,6.5C180.8,94.2,182.8,93.5,185,92.5L185,92.5z M325.7,87.6
			l0-6.6l-4.3,4.6c-2.4,2.5-4.3,4.8-4.3,5c0,0.4,6.8,3.5,7.9,3.6l0.8,0.1L325.7,87.6z M332.1,87.5c1.9-2.2,3.5-4.1,3.5-4.3
			c0-0.4-7.2-3.2-8.2-3.2c-0.3,0-0.5,3-0.5,6.6v6.6l0.9-0.9C328.3,91.8,330.2,89.7,332.1,87.5L332.1,87.5z M178.6,80.2
			c-0.4-0.4-7.8,2.5-7.8,3.1c0,0.3,1.7,2.4,3.9,4.8l3.9,4.3l0.2-6C178.8,83.1,178.7,80.4,178.6,80.2L178.6,80.2z M195.3,88.6
			c5-1.8,5-1.6-0.1-6.7l-4.6-4.6v6.3c0,3.6,0.2,6.3,0.6,6.3C191.4,89.9,193.3,89.3,195.3,88.6L195.3,88.6z M315.2,83.9v-6l-4.3,4.3
			c-2.4,2.4-4.3,4.4-4.3,4.6c0,0.4,6.7,3,7.9,3.1l0.8,0.1V83.9z M325.1,79.4c0-0.4-6.7-2.5-7.9-2.5h-0.7l0.1,12l4.3-4.6
			C323.2,81.8,325.1,79.5,325.1,79.4L325.1,79.4z M189.9,82.6c0-3-0.2-5.6-0.3-5.8c-0.5-0.5-8.3,2.1-8.3,2.8c0,0.7,7.5,8.5,8.1,8.5
			C189.7,88,189.9,85.6,189.9,82.6L189.9,82.6z M206.5,84.9c2.1-0.7,3.8-1.3,3.8-1.4c0-0.1-1.9-2-4.3-4.4l-4.3-4.3v5.7
			c0,3.1,0.2,5.7,0.5,5.7C202.4,86.2,204.4,85.6,206.5,84.9L206.5,84.9z M304.7,80.5v-5.7l-4.3,4.3c-2.4,2.4-4.3,4.5-4.3,4.6
			c0,0.4,6.3,2.3,7.9,2.4l0.8,0.1V80.5z M314.6,76.3c0-0.3-7.3-2.5-8.3-2.5c-0.2,0-0.4,2.6-0.4,5.7v5.7l4.3-4.3
			C312.7,78.6,314.6,76.5,314.6,76.3L314.6,76.3z M200.4,79.4c0-2.7-0.2-5-0.5-5.2c-0.5-0.3-7.5,1.3-8.1,1.9
			c-0.3,0.3,7.5,8.3,8.1,8.3C200.2,84.3,200.4,82.1,200.4,79.4L200.4,79.4z M215.8,82.4c1.5-0.3,3.2-0.8,3.7-0.9l0.9-0.3l-4-4
			c-2.2-2.2-4.2-4-4.4-4c-0.3,0-0.5,2.2-0.5,4.9v4.9l0.8,0C212.7,83.1,214.3,82.8,215.8,82.4L215.8,82.4z M294.2,78.1v-5l-4.3,3.9
			c-2.4,2.1-4.1,4.1-3.9,4.3c0.5,0.5,5.2,1.6,7.1,1.7l1.1,0.1V78.1z M210.4,71.9c-0.1-0.4-7.6,1.2-8.2,1.7c-0.2,0.2,1.5,2,3.7,4.1
			l4,3.8l0.3-4.6C210.5,74.4,210.5,72.1,210.4,71.9L210.4,71.9z M300.4,77.3l3.9-3.9l-3.9-0.9c-5-1.1-4.9-1.2-4.9,4.2
			C295.5,82.2,295.5,82.2,300.4,77.3L300.4,77.3z M229.9,79.5l0.9-0.3l-3.9-3.9c-4.9-4.9-4.9-4.9-4.9,0.8v4.7l3.5-0.4
			C227.4,80.1,229.4,79.7,229.9,79.5L229.9,79.5z M283.8,75.9v-4.7l-3.9,3.6c-2.1,2-3.9,3.9-3.9,4.2c0,0.6,2.9,1.3,6.3,1.5l1.4,0.1
			V75.9z M293.2,71.3c-0.3-0.2-2.2-0.6-4.3-0.9L285,70v10.3l4.3-4.3C291.7,73.6,293.4,71.5,293.2,71.3L293.2,71.3z M220.8,74.7V70
			l-3.9,0.4c-2.1,0.2-4,0.6-4.1,0.7c-0.2,0.2,7.4,8.3,7.8,8.3C220.7,79.4,220.8,77.3,220.8,74.7L220.8,74.7z M238.3,78.5l3-0.4
			l-3.9-4c-4.9-4.9-4.9-4.9-4.9,0.3c0,4.5,0.3,5.2,1.8,4.8C234.8,79,236.6,78.7,238.3,78.5L238.3,78.5z M273.3,74.6v-4.8l-4,4
			c-2.2,2.2-3.9,4-3.8,4.1c0.1,0.1,3.5,0.8,7.4,1.4C273,79.4,273.3,77.2,273.3,74.6L273.3,74.6z M248.4,77.5h2.8l-3.6-3.9
			c-4.6-5-4.6-5-4.6-0.3c0,4.2,0.3,5,1.7,4.5C245.2,77.7,246.8,77.5,248.4,77.5L248.4,77.5z M262.7,73.7l0-4.5l-3.7,4l-3.7,4l3,0.4
			c1.6,0.2,3.3,0.4,3.7,0.5l0.8,0.1L262.7,73.7z M231.3,73v-4.5l-3.8,0.5c-2.1,0.3-3.9,0.6-4.1,0.8c-0.2,0.2,7.2,7.7,7.7,7.7
			C231.2,77.5,231.3,75.5,231.3,73L231.3,73z M279.3,73.6l3.9-3.9l-2.4-0.4c-1.3-0.2-3.3-0.4-4.4-0.4l-2,0v4.3
			C274.5,78.5,274.5,78.5,279.3,73.6L279.3,73.6z M272.5,68.5c-0.1-0.1-2-0.3-4.3-0.5l-4.2-0.4v9.6l4.3-4.3
			C270.7,70.6,272.5,68.6,272.5,68.5L272.5,68.5z M242.3,72.1l-0.2-4.2l-4,0.2c-2.2,0.1-4.1,0.3-4.2,0.4c-0.3,0.3,7.5,7.7,8.1,7.7
			C242.2,76.3,242.4,74.4,242.3,72.1L242.3,72.1z M252.3,72v-4.3h-4c-2.2,0-4,0.2-4,0.4c0,0.4,7.5,8.2,7.9,8.2
			C252.2,76.3,252.3,74.4,252.3,72L252.3,72z M258.4,72.1l3.7-4.2l-3.5-0.2c-1.9-0.1-3.8,0-4.3,0.1l-0.8,0.3v4
			C253.5,77.3,253.8,77.3,258.4,72.1L258.4,72.1z M258.4,72.1"/>
	</g>
	<path fill="#FFFFFF" d="M318.2,566.6c-1.1,1-1.9,2.6-2.4,4.6c-0.3,1-0.5,2.2-0.8,3.7c-0.2,1.4-0.5,2.6-0.6,3.3
		c-0.3,1.5-0.8,2.5-1.5,3.1c-0.6,0.6-1.5,0.9-2.7,0.9c-1.3,0-2.3-0.6-3.1-1.8c-0.8-1.2-1.2-2.7-1.2-4.7c0-1.8,0.3-3.5,0.9-5.2
		c0.6-1.7,1.3-3.1,2.2-4.1v-0.3h-4.3c-0.5,1.2-1,2.7-1.4,4.3c-0.4,1.6-0.6,3.4-0.6,5.3c0,3,0.7,5.4,2.2,7.4c1.5,1.9,3.3,2.9,5.6,2.9
		c2,0,3.6-0.6,4.9-1.8c1.2-1.2,2.1-3,2.6-5.4c0.2-1.2,0.4-2.3,0.6-3.4c0.2-1.1,0.4-2.1,0.6-3c0.3-1.2,0.8-2.1,1.3-2.7
		c0.6-0.6,1.5-0.9,2.7-0.9c1.4,0,2.5,0.6,3.4,1.9c0.8,1.3,1.3,3,1.3,5.3c0,1.6-0.3,3.3-0.9,5.1c-0.6,1.8-1.5,3.4-2.7,4.8v0.3h4.6
		c0.7-1.6,1.3-3.2,1.6-4.8c0.4-1.6,0.6-3.3,0.6-5.3c0-1.8-0.2-3.4-0.7-4.7s-1.1-2.4-1.8-3.4c-0.7-0.9-1.6-1.6-2.6-2.1
		c-1-0.5-2.1-0.7-3.2-0.7C320.8,565.1,319.3,565.6,318.2,566.6L318.2,566.6z M303.2,543.7l12.2,7.6l-12.2,7.5v4l15.8-9.7h11.6v-3.6
		h-12l-15.4-9.6V543.7L303.2,543.7z M310.1,514.5c-1.9,1-3.5,2.5-4.7,4.4c-0.7,1.1-1.2,2.4-1.6,4c-0.4,1.6-0.6,3.7-0.6,6.4v6.8h27.4
		v-6.9c0-2.5-0.2-4.5-0.5-6.1c-0.3-1.5-0.9-2.9-1.7-4.2c-1.1-1.8-2.7-3.2-4.7-4.3c-2-1.1-4.3-1.6-6.8-1.6
		C314.3,512.9,312,513.4,310.1,514.5L310.1,514.5z M322.2,517.7c1.4,0.7,2.6,1.7,3.4,3.1c0.7,1.1,1.2,2.3,1.4,3.6
		c0.3,1.3,0.4,2.8,0.4,4.6v3.4h-21.1V529c0-1.7,0.1-3.1,0.4-4.4s0.7-2.4,1.3-3.4c0.8-1.5,2-2.6,3.5-3.3c1.5-0.7,3.3-1.1,5.4-1.1
		C319,516.7,320.8,517.1,322.2,517.7L322.2,517.7z M303.2,486.2v3.4h22.4l-22.4,11.8v5.6h27.4v-3.4h-24.5l24.5-13v-4.5H303.2
		L303.2,486.2z M327.4,460.8v14.4h-10.2v-14.4H314v14.4h-7.5v-14.4h-3.2v18h27.4v-18H327.4L327.4,460.8z M303.2,439.6l12.2,7.6
		l-12.2,7.5v4L319,449h11.6v-3.6h-12l-15.4-9.6V439.6L303.2,439.6z"/>
	<path fill="#FFFFFF" d="M365.7,572.6c-0.7-1.7-1.7-3.1-3-4.1c-1.3-1-3-1.5-5-1.5c-1.5,0-2.7,0.3-3.6,0.8c-0.9,0.6-1.7,1.3-2.4,2.3
		c-0.6,0.9-0.9,1.9-1.1,3c-0.2,1.1-0.3,2.5-0.3,4.1v7.7h27.4v-3.6h-10.9v-5.1l10.9-9.2v-4.7L365.7,572.6L365.7,572.6z M360.6,571.2
		c0.7,0.3,1.3,0.7,1.8,1.2c0.6,0.6,0.9,1.3,1.1,2.2c0.2,0.9,0.3,1.9,0.3,3v3.7h-10.3V577c0-1,0.1-1.8,0.2-2.6
		c0.1-0.7,0.4-1.3,0.7-1.9c0.4-0.6,0.9-1.1,1.5-1.4c0.6-0.3,1.3-0.4,2.1-0.4C359,570.8,359.9,571,360.6,571.2L360.6,571.2z
		 M374.5,540.7v14.4h-10.2v-14.4h-3.2v14.4h-7.5v-14.4h-3.2v18h27.4v-18H374.5L374.5,540.7z M365.3,516.6c-1.1,1-1.9,2.6-2.4,4.6
		c-0.3,1-0.5,2.2-0.8,3.7c-0.2,1.4-0.5,2.6-0.6,3.3c-0.3,1.5-0.8,2.5-1.5,3.1c-0.6,0.6-1.5,0.9-2.7,0.9c-1.3,0-2.3-0.6-3.1-1.8
		c-0.8-1.2-1.2-2.7-1.2-4.7c0-1.8,0.3-3.5,0.9-5.2c0.6-1.7,1.3-3.1,2.2-4.1v-0.3h-4.3c-0.5,1.2-1,2.7-1.4,4.3
		c-0.4,1.6-0.6,3.4-0.6,5.3c0,3,0.7,5.4,2.2,7.4c1.5,1.9,3.3,2.9,5.6,2.9c2,0,3.6-0.6,4.9-1.8c1.2-1.2,2.1-3,2.6-5.4
		c0.2-1.2,0.4-2.3,0.6-3.4c0.2-1.1,0.4-2.1,0.6-3c0.3-1.2,0.8-2.1,1.3-2.7c0.6-0.6,1.5-0.9,2.7-0.9c1.4,0,2.5,0.6,3.4,1.9
		c0.8,1.3,1.3,3,1.3,5.3c0,1.6-0.3,3.3-0.9,5.1c-0.6,1.8-1.5,3.4-2.7,4.8v0.3h4.6c0.7-1.6,1.3-3.2,1.6-4.8c0.4-1.6,0.6-3.3,0.6-5.3
		c0-1.8-0.2-3.4-0.7-4.7c-0.4-1.3-1.1-2.4-1.8-3.4c-0.7-0.9-1.6-1.6-2.6-2.1c-1-0.5-2.1-0.7-3.2-0.7
		C367.9,515.1,366.4,515.6,365.3,516.6L365.3,516.6z M374.9,499.6v3.6h-21.8v-3.6h-2.8v10.8h2.8v-3.6h21.8v3.6h2.8v-10.8H374.9
		L374.9,499.6z M365.3,475c-1.1,1-1.9,2.6-2.4,4.6c-0.3,1-0.5,2.2-0.8,3.7c-0.2,1.4-0.5,2.6-0.6,3.3c-0.3,1.5-0.8,2.5-1.5,3.1
		c-0.6,0.6-1.5,0.9-2.7,0.9c-1.3,0-2.3-0.6-3.1-1.8c-0.8-1.2-1.2-2.7-1.2-4.7c0-1.8,0.3-3.5,0.9-5.2c0.6-1.7,1.3-3.1,2.2-4.1v-0.3
		h-4.3c-0.5,1.2-1,2.7-1.4,4.3c-0.4,1.6-0.6,3.4-0.6,5.3c0,3,0.7,5.4,2.2,7.4c1.5,1.9,3.3,2.9,5.6,2.9c2,0,3.6-0.6,4.9-1.8
		c1.2-1.2,2.1-3,2.6-5.4c0.2-1.2,0.4-2.3,0.6-3.4c0.2-1.1,0.4-2.1,0.6-3c0.3-1.2,0.8-2.1,1.3-2.7c0.6-0.6,1.5-0.9,2.7-0.9
		c1.4,0,2.5,0.6,3.4,1.9c0.8,1.3,1.3,3,1.3,5.3c0,1.6-0.3,3.3-0.9,5.1c-0.6,1.8-1.5,3.4-2.7,4.8v0.3h4.6c0.7-1.6,1.3-3.2,1.6-4.8
		c0.4-1.6,0.6-3.3,0.6-5.3c0-1.8-0.2-3.4-0.7-4.7c-0.4-1.3-1.1-2.4-1.8-3.4c-0.7-0.9-1.6-1.6-2.6-2.1c-1-0.5-2.1-0.7-3.2-0.7
		C367.9,473.5,366.4,474,365.3,475L365.3,475z M350.3,448.1v23.2h3.2v-9.8h24.1v-3.6h-24.1v-9.8H350.3L350.3,448.1z M350.3,432.8
		v4.9l27.4,10v-3.7l-7.6-2.7v-11.8l7.6-2.7v-3.9L350.3,432.8L350.3,432.8z M366.9,440.2l-13.4-4.8l13.4-4.8V440.2L366.9,440.2z
		 M350.3,397.8v3.4h22.4l-22.4,11.8v5.6h27.4v-3.4h-24.5l24.5-13v-4.5H350.3L350.3,397.8z M371.4,369.4v0.3c1.2,1.3,2.1,2.8,2.7,4.3
		c0.6,1.5,0.9,3.2,0.9,4.9c0,1.3-0.2,2.5-0.7,3.6c-0.4,1.1-1.1,2.1-2,3c-0.9,0.8-2,1.5-3.4,2c-1.4,0.5-3,0.8-5,0.8
		c-1.8,0-3.5-0.2-4.9-0.7c-1.4-0.5-2.6-1.1-3.5-2c-0.9-0.9-1.6-1.9-2.1-3c-0.4-1.1-0.7-2.4-0.7-3.7c0-1.7,0.3-3.3,0.9-4.8
		c0.6-1.5,1.5-3,2.8-4.5v-0.3h-4.3c-0.9,1.8-1.5,3.4-1.9,4.9c-0.4,1.5-0.5,2.9-0.5,4.4c0,2,0.3,3.8,0.9,5.5c0.6,1.6,1.5,3.1,2.7,4.2
		c1.2,1.2,2.7,2.1,4.5,2.8c1.8,0.6,3.8,1,6,1c2.4,0,4.5-0.3,6.3-1c1.8-0.7,3.3-1.6,4.4-2.8c1.2-1.2,2.1-2.6,2.6-4.2
		c0.6-1.6,0.8-3.4,0.8-5.4c0-1.1-0.1-2-0.2-2.9c-0.2-0.9-0.4-1.7-0.6-2.4c-0.3-0.9-0.6-1.6-0.8-2.1c-0.3-0.5-0.5-1.2-0.8-1.8H371.4
		L371.4,369.4z"/>
	<polygon fill="#FFFFFF" points="374.5,346.1 374.5,360.5 364.3,360.5 364.3,346.1 361.1,346.1 361.1,360.5 353.6,360.5 
		353.6,346.1 350.3,346.1 350.3,364.1 377.7,364.1 377.7,346.1 374.5,346.1 	"/>
	<path fill="#0097FD" d="M216,61.4l0.2-1.7l-0.9,0c-0.5,0-1.2-0.1-1.6-0.2l-0.7-0.2l1.4-0.8c1.6-0.9,1.6-0.7,0.5-2.2
		c-1-1.5-1-1.5,0.7-0.9l1.4,0.5l0.2-0.2c0.1-0.1,0.4-0.8,0.6-1.5c0.2-0.7,0.4-1.3,0.5-1.3s0.3,0.6,0.5,1.3c0.2,0.7,0.5,1.3,0.6,1.5
		l0.2,0.2l1.4-0.5c1.7-0.6,1.7-0.6,0.7,0.8c-1,1.5-1.1,1.4,0.5,2.3l1.4,0.8l-0.7,0.2c-0.4,0.1-1.1,0.2-1.6,0.2l-0.9,0l0.2,1.7
		l0.2,1.7l-1-1.1c-1.2-1.4-1.4-1.4-2.6,0l-1,1.1L216,61.4z M224.3,36.9l0.3-1l-0.8-0.6c-1-0.8-1-1,0.3-1h1.1l0.3-1
		c0.2-0.5,0.4-1,0.4-1c0.1,0,0.3,0.4,0.5,1l0.3,1h1c1.2,0,1.3,0.1,0.3,1l-0.8,0.6l0.3,1c0.3,1.2,0.3,1.2-0.8,0.5l-0.8-0.5l-0.8,0.5
		C224,38.1,224,38,224.3,36.9L224.3,36.9z M196.3,31.2c0.1-0.6,0.2-1.4,0.3-1.7l0.1-0.6l-3.5-0.3l0.7-0.4c0.4-0.2,1.1-0.6,1.5-0.9
		l0.8-0.5l-0.9-1.3c-1-1.5-1-1.6,0.6-1c1.7,0.6,1.7,0.7,2.1-1c0.2-0.8,0.5-1.4,0.6-1.4c0.1,0,0.3,0.6,0.6,1.4c0.4,1.6,0.4,1.6,2.1,1
		c1.6-0.6,1.6-0.5,0.6,1c-0.5,0.7-0.8,1.3-0.8,1.3c0,0,0.7,0.4,1.5,0.9l1.4,0.8l-1.7,0.2l-1.7,0.2l0.1,0.6c0.1,0.3,0.2,1.1,0.3,1.7
		l0.2,1.1l-2.4-2.4l-1.2,1.2l-1.2,1.2L196.3,31.2z M233.2,25.7c0.1-0.7,0.2-1.5,0.2-1.7l0-0.4l-1.4-0.1c-1.8-0.2-1.9-0.3-0.3-1.2
		l1.3-0.8l-1-1.4c-0.5-0.8-0.9-1.4-0.8-1.4c0.1,0,0.7,0.2,1.3,0.5c0.7,0.3,1.4,0.5,1.6,0.5h0.3l0.4-1.4c0.5-1.7,0.6-1.7,1.2,0.2
		l0.4,1.4l1.5-0.6c1.7-0.7,1.8-0.7,0.8,0.7c-0.4,0.6-0.8,1.1-0.8,1.3l-0.2,0.3l1.3,0.8l1.3,0.8l-0.3,0.2c-0.2,0.1-0.9,0.2-1.6,0.2
		l-1.3,0l0.2,1c0.1,0.6,0.2,1.3,0.3,1.7l0.1,0.7l-1.2-1.2l-1.2-1.2l-1.2,1.2l-1.2,1.2L233.2,25.7L233.2,25.7z M216,9.4l0.2-1.6
		l-1-0.1c-0.6-0.1-1.3-0.2-1.6-0.2l-0.6-0.1l1.3-0.8c0.7-0.4,1.4-0.8,1.4-0.9c0.1,0-0.3-0.7-0.8-1.4c-0.5-0.7-0.9-1.4-0.9-1.4
		c0-0.1,0.7,0.2,1.5,0.5c1.7,0.7,1.6,0.7,2.2-1.2l0.5-1.4l0.5,1.4c0.6,1.9,0.6,1.8,2.3,1.2c0.8-0.3,1.5-0.5,1.5-0.5
		c0,0.1-0.4,0.7-0.9,1.4c-0.5,0.7-0.8,1.4-0.8,1.4c0.1,0,0.7,0.4,1.4,0.9l1.3,0.8l-0.6,0.1c-0.3,0-1.1,0.1-1.6,0.2l-1.1,0.1l0.2,1.6
		l0.2,1.6l-1.2-1.1l-1.2-1.1L217,9.8l-1.2,1.1L216,9.4z M216,9.4"/>
	<path fill="#FFFFFF" d="M206.4,694.9l-10.4-10v-52.8h-24.1l-0.9,29.7l-36-33.5l-36-33.5v-80.6h69.6l-0.9,33.1l-29.9,0.9v24.1h58.2
		V426.9h-21v-22.6h21v-21h-21l0-5.3c0-5-2.7-7.2-58.1-48.9l-58.1-43.6l-0.1-76.8h121.2l18.6-14.7c10.2-8.1,19.5-14.3,20.6-13.9
		c1.1,0.4,9.9,7.1,19.6,14.7l17.6,13.9h120.8l0,38.4l0,38.4l-58.1,43.6c-55.3,41.5-58.1,43.9-58.2,48.9l-0.1,5.3h-21v21h21v22.6h-21
		v257.9l-10.1,10.1c-5.6,5.5-10.7,10.1-11.5,10.1C217.4,704.9,212.1,700.4,206.4,694.9L206.4,694.9z M199.3,329.7l19.4-5.1l18.3,5.1
		c10.1,2.8,19.3,5.1,20.5,5.1c1.2,0,21.7-14.7,45.5-32.7l43.3-32.7l0-14.1l0-14.1h-90.3l-37.9,40.2l-19.3-20.1L179.6,241H89.4
		l0,28.3l43.2,32.6c23.8,17.9,44.1,32.7,45.2,32.7C179,334.7,188.7,332.5,199.3,329.7L199.3,329.7z M237.9,219.7
		c-3.9-3.4-10.1-8.3-13.7-10.9l-6.6-4.7l-13.4,10.5l-13.4,10.5l5.4,5.9c3,3.2,9,9.8,13.5,14.5l8.1,8.6l13.6-14.2l13.6-14.2
		L237.9,219.7z M237.9,219.7"/>
	<path fill="#FFFFFF" d="M287.4,597.2c-6.9-0.1-11.3-0.4-11.3-0.7c0-0.4,18.1-0.6,50.9-0.6c33.5,0,50.9,0.2,50.9,0.6
		c0,0.4-13.3,0.6-38.8,0.6c-21.3,0-39.2,0.1-39.6,0.1C299,597.3,293.6,597.3,287.4,597.2L287.4,597.2z M287.4,597.2"/>
</g>
</svg>
